<svg width="115" height="301" viewBox="0 0 115 301" fill="none" xmlns="http://www.w3.org/2000/svg">
<g clip-path="url(#clip0_504_1356)">
<path d="M113.755 57.6769L109.852 56.1933C109.274 51.0687 105.383 46.8109 98.2599 43.5155C98.1814 42.3834 97.7385 41.3068 96.9972 40.4461C96.2559 39.5853 95.2559 38.9863 94.1458 38.7383C94.5499 38.3205 94.8526 37.8159 95.0307 37.2632C95.2087 36.7106 95.2574 36.1245 95.173 35.5501C95.0954 35.0538 94.9005 34.5831 94.6044 34.1769C94.3082 33.7707 93.9193 33.4407 93.4699 33.2142C93.0206 32.9877 92.5236 32.8712 92.0201 32.8745C91.5166 32.8777 91.0212 33.0004 90.5747 33.2326C90.1196 33.504 89.7526 33.9007 89.5178 34.375C89.283 34.8493 89.1903 35.3811 89.251 35.9067C89.3306 36.4727 89.6074 36.9927 90.0329 37.3755C90.4584 37.7583 91.0054 37.9793 91.5779 37.9999L91.6909 38.0028C91.8091 38.005 91.9264 37.9827 92.0355 37.9373C92.1445 37.892 92.243 37.8245 92.3245 37.7392C92.406 37.6538 92.4689 37.5526 92.5091 37.4417C92.5494 37.3309 92.5661 37.2129 92.5583 37.0953C92.5504 36.9777 92.5182 36.8629 92.4635 36.7584C92.4089 36.6539 92.3331 36.5618 92.241 36.488C92.1488 36.4143 92.0423 36.3604 91.9281 36.3298C91.814 36.2993 91.6947 36.2928 91.5779 36.3106C91.3929 36.3286 91.208 36.2747 91.0618 36.1602C90.9155 36.0457 90.8191 35.8793 90.7927 35.6957C90.7688 35.4722 90.8104 35.2467 90.9125 35.0464C91.0145 34.8461 91.1727 34.6796 91.3677 34.5672C91.5654 34.4497 91.794 34.3942 92.0237 34.4077C92.28 34.4171 92.531 34.4841 92.7577 34.6037C92.9829 34.7254 93.177 34.897 93.3253 35.1053C93.4735 35.3136 93.572 35.5531 93.6129 35.8053C93.6786 36.3571 93.5386 36.9137 93.2196 37.3691C92.9005 37.8246 92.4247 38.147 91.8827 38.2751C91.5901 38.3413 91.2873 38.3503 90.9912 38.3015C90.6563 38.2598 90.3161 38.2609 89.9848 38.1918L88.999 37.9292C88.6741 37.8254 88.3637 37.6619 88.0445 37.5333C85.5201 36.0735 83.2433 34.2242 81.2986 32.054C80.2003 30.9616 79.0228 29.9515 77.7755 29.032C76.7635 28.2978 75.6254 27.7544 74.4174 27.4288C74.9552 26.7725 75.2755 25.9658 75.3338 25.1201C75.3863 24.4666 75.2524 23.8117 74.9476 23.231C74.6428 22.6503 74.1794 22.1675 73.6112 21.8384C73.0421 21.5093 72.3894 21.3524 71.7325 21.3866C71.0424 21.4238 70.3883 21.7059 69.8885 22.1821C69.3886 22.6583 69.076 23.2971 69.007 23.9832C68.9681 24.3407 69.0079 24.7024 69.1236 25.043C69.2394 25.3835 69.4283 25.6948 69.6772 25.9549C69.9273 26.2149 70.2323 26.4161 70.5701 26.5439C70.9078 26.6716 71.2699 26.7228 71.6299 26.6937C71.837 26.6811 72.0406 26.6351 72.2329 26.5575C72.5016 26.452 72.7284 26.262 72.8789 26.0162C73.0163 25.783 73.0893 25.5176 73.0903 25.2471C73.0951 25.0235 73.065 24.8005 73.001 24.5861C72.9186 24.3858 72.7618 24.225 72.5633 24.1375C72.3648 24.05 72.14 24.0425 71.9361 24.1166C71.7322 24.1907 71.5649 24.3406 71.4693 24.535C71.3737 24.7294 71.3572 24.9531 71.4232 25.1593C71.307 25.1573 71.1924 25.1321 71.0861 25.0854C70.9798 25.0387 70.8838 24.9714 70.8038 24.8873C70.6302 24.6571 70.5524 24.3688 70.5869 24.0827C70.6213 23.7966 70.7653 23.5349 70.9887 23.3522C71.211 23.1453 71.5026 23.0285 71.8067 23.0247C72.0573 23.0204 72.306 23.0698 72.5359 23.1694C72.7658 23.2691 72.9716 23.4168 73.1395 23.6025C73.3074 23.7882 73.4334 24.0077 73.5092 24.2461C73.5849 24.4845 73.6085 24.7364 73.5785 24.9847C73.5449 25.3408 73.4304 25.6845 73.2437 25.9899C73.0571 26.2953 72.8032 26.5543 72.5013 26.7471C72.19 26.9348 71.8422 27.0539 71.481 27.0964C71.1199 27.1389 70.7538 27.1038 70.4073 26.9935C69.6711 26.7915 69.0341 26.3284 68.6159 25.691C68.2036 25.0501 68.0347 24.2832 68.1397 23.5289C68.3199 21.9803 69.6452 20.5118 70.9467 19.0989C72.4463 17.6729 73.7055 16.0148 74.6756 14.1886C74.9003 13.676 75.0635 13.1388 75.1619 12.588C75.2064 12.308 75.2323 12.0254 75.2395 11.742C75.2606 11.4128 75.2239 11.0823 75.1311 10.7657C74.9651 10.2039 74.6257 9.70865 74.161 9.35069C79.7781 6.98284 79.7959 5.03243 79.7959 3.99195C79.7959 -8.04691e-06 75.6418 0 73.8679 0C72.8879 0 71.6363 0.0329372 70.0517 0.0747886C67.1441 0.151471 63.1617 0.25677 57.4999 0.25677C51.8383 0.25677 47.8557 0.151471 44.9477 0.0747886C43.3634 0.0329372 42.1119 0 41.1319 0C39.358 0 35.2039 -8.04691e-06 35.2039 3.99195C35.2039 5.03243 35.2217 6.98271 40.8388 9.35069C40.3741 9.70865 40.0346 10.2039 39.8687 10.7657C39.7759 11.0823 39.7392 11.4128 39.7603 11.742C39.7675 12.0254 39.7934 12.308 39.8378 12.588C39.9362 13.1388 40.0995 13.676 40.3242 14.1886C41.2943 16.0148 42.5534 17.6729 44.0531 19.0989C45.3545 20.5118 46.6799 21.9803 46.86 23.5289C46.965 24.2832 46.7961 25.0501 46.3838 25.691C45.9657 26.3284 45.3286 26.7916 44.5924 26.9935C44.2459 27.1038 43.8799 27.1389 43.5187 27.0964C43.1576 27.0539 42.8097 26.9348 42.4985 26.7471C42.1966 26.5543 41.9427 26.2953 41.756 25.9899C41.5694 25.6846 41.4549 25.3408 41.4213 24.9847C41.3913 24.7364 41.4149 24.4845 41.4906 24.2461C41.5664 24.0077 41.6924 23.7882 41.8603 23.6025C42.0282 23.4168 42.234 23.2691 42.4639 23.1694C42.6938 23.0698 42.9425 23.0204 43.1931 23.0247C43.4972 23.0285 43.7888 23.1453 44.0111 23.3522C44.2345 23.5349 44.3784 23.7966 44.4129 24.0827C44.4473 24.3688 44.3696 24.6571 44.196 24.8873C44.116 24.9714 44.02 25.0387 43.9136 25.0854C43.8073 25.1321 43.6927 25.1572 43.5765 25.1593C43.6426 24.9531 43.6261 24.7294 43.5305 24.535C43.4349 24.3406 43.2676 24.1906 43.0637 24.1166C42.8597 24.0425 42.635 24.05 42.4365 24.1375C42.238 24.225 42.0812 24.3858 41.9988 24.5861C41.9348 24.8005 41.9047 25.0235 41.9095 25.2471C41.9105 25.5176 41.9834 25.783 42.1208 26.0162C42.2714 26.262 42.4982 26.452 42.7669 26.5575C42.9592 26.6351 43.1628 26.6811 43.3698 26.6937C43.7299 26.7228 44.0919 26.6716 44.4297 26.5439C44.7674 26.4161 45.0725 26.2149 45.3227 25.9549C45.5715 25.6948 45.7604 25.3835 45.8761 25.043C45.9919 24.7024 46.0316 24.3407 45.9926 23.9832C45.9237 23.2971 45.6111 22.6582 45.1112 22.182C44.6114 21.7058 43.9573 21.4237 43.2671 21.3866C42.6103 21.3524 41.9576 21.5093 41.3886 21.8384C40.8203 22.1675 40.357 22.6503 40.0522 23.231C39.7473 23.8117 39.6134 24.4666 39.6659 25.1201C39.7243 25.9658 40.0446 26.7725 40.5824 27.4288C39.3743 27.7544 38.2362 28.2978 37.2241 29.032C35.9769 29.9515 34.7994 30.9616 33.7012 32.054C31.7565 34.2242 29.4796 36.0735 26.9552 37.5333C26.6361 37.6619 26.3257 37.8254 26.0008 37.9292L25.015 38.1918C24.6837 38.2609 24.3435 38.2598 24.0086 38.3015C23.7125 38.3503 23.4097 38.3413 23.1171 38.2751C22.5751 38.147 22.0993 37.8246 21.7802 37.3691C21.4612 36.9137 21.3212 36.3571 21.3869 35.8053C21.4278 35.5531 21.5262 35.3137 21.6745 35.1054C21.8227 34.8971 22.0168 34.7255 22.242 34.6037C22.4688 34.4841 22.7197 34.4171 22.9761 34.4077C23.2058 34.3942 23.4343 34.4497 23.632 34.5672C23.827 34.6796 23.9852 34.8461 24.0872 35.0464C24.1893 35.2467 24.231 35.4722 24.2071 35.6957C24.1807 35.8793 24.0843 36.0457 23.9381 36.1602C23.7918 36.2747 23.6069 36.3286 23.4219 36.3106C23.3722 36.3033 23.3221 36.3001 23.2719 36.301C23.1597 36.3035 23.0492 36.328 22.9465 36.3732C22.8439 36.4184 22.7512 36.4833 22.6737 36.5642C22.5962 36.6452 22.5355 36.7406 22.4951 36.845C22.4546 36.9494 22.4352 37.0608 22.438 37.1727C22.4407 37.2846 22.4656 37.3948 22.5111 37.4971C22.5566 37.5994 22.6219 37.6918 22.7032 37.7689C22.7846 37.846 22.8803 37.9063 22.9851 37.9464C23.0898 37.9865 23.2015 38.0056 23.3136 38.0026L23.4219 37.9999C23.9944 37.9793 24.5414 37.7583 24.9669 37.3755C25.3924 36.9927 25.6692 36.4727 25.7488 35.9067C25.8095 35.3811 25.7169 34.8493 25.482 34.3749C25.2472 33.9006 24.8801 33.504 24.425 33.2326C23.9785 33.0004 23.4831 32.8777 22.9796 32.8745C22.4762 32.8712 21.9792 32.9877 21.5298 33.2142C21.0804 33.4407 20.6916 33.7707 20.3954 34.1769C20.0993 34.5831 19.9044 35.0538 19.8268 35.5501C19.7424 36.1245 19.791 36.7106 19.9691 37.2633C20.1472 37.8159 20.4499 38.3205 20.854 38.7383C19.744 38.9863 18.7439 39.5853 18.0026 40.446C17.2613 41.3068 16.8184 42.3834 16.7398 43.5155C9.61643 46.811 5.72557 51.0687 5.14817 56.1933L1.24482 57.6769C0.779105 57.8538 0.399942 58.2035 0.186512 58.6528C-0.0269181 59.1021 -0.0581169 59.6162 0.099459 60.0879C0.261573 60.5729 1.26337 62.8554 5.78781 63.176C6.87351 65.219 9.81213 72.3065 9.90157 89.2863L7.26916 91.9125C6.9989 92.1821 6.81481 92.5256 6.74024 92.8996C6.66566 93.2735 6.70392 93.6612 6.85017 94.0135C6.99642 94.3657 7.24413 94.6668 7.56192 94.8787C7.8797 95.0905 8.25331 95.2036 8.6355 95.2036H11.2471C12.7051 96.2219 17.3614 99.7799 17.8867 104.01C17.515 104.383 17.2501 104.848 17.1195 105.358C16.9889 105.867 16.9974 106.402 17.1442 106.908C17.8507 109 20.6758 109 21.7393 109C22.8029 109 25.628 109 26.3343 106.908C26.4811 106.403 26.4897 105.868 26.3595 105.359C26.2292 104.85 25.9648 104.385 25.5936 104.012C26.0893 100.15 30.145 96.6216 32.2192 95.2036H34.843C35.2252 95.2036 35.5989 95.0905 35.9166 94.8787C36.2344 94.6668 36.4821 94.3657 36.6283 94.0135C36.7746 93.6612 36.8129 93.2735 36.7383 92.8996C36.6637 92.5256 36.4796 92.1821 36.2093 91.9125L33.577 89.2863C33.6658 72.2537 36.5942 65.2105 37.6849 63.1764C42.2147 62.8573 43.2169 60.5731 43.3791 60.0879C43.5367 59.6163 43.5055 59.1021 43.2921 58.6528C43.0787 58.2035 42.6995 57.8538 42.2338 57.6769L38.3305 56.1933C37.7941 51.4329 34.3939 47.4219 28.2042 44.2339H42.6456C41.8643 44.8542 41.3077 45.7124 41.0607 46.6776C40.8938 47.3485 40.8844 48.0487 41.0332 48.7238C41.182 49.3988 41.4851 50.0305 41.9188 50.5695C42.3741 51.1267 42.9808 51.541 43.6661 51.7627C44.3514 51.9845 45.0864 52.0044 45.7828 51.8199C46.4883 51.637 47.1198 51.2409 47.5908 50.6858C48.0692 50.1051 48.3205 49.3712 48.2983 48.6198C48.2772 47.8648 47.9776 47.1442 47.4569 46.5959C47.1816 46.3144 46.8462 46.0984 46.4757 45.9641C46.1051 45.8299 45.709 45.7807 45.3167 45.8203C44.9141 45.8545 44.5261 45.9871 44.1869 46.2062C43.8477 46.4253 43.5678 46.7243 43.3717 47.0768C43.1746 47.4535 43.0803 47.8753 43.0984 48.2998C43.1165 48.7244 43.2462 49.1367 43.4746 49.4953L43.5792 49.663C43.6478 49.7717 43.7396 49.864 43.848 49.9332C43.9564 50.0025 44.0788 50.0471 44.2065 50.0637C44.3341 50.0804 44.4639 50.0687 44.5865 50.0296C44.7092 49.9905 44.8216 49.9249 44.9159 49.8374C45.0102 49.7499 45.084 49.6428 45.132 49.5236C45.18 49.4044 45.2011 49.2762 45.1938 49.1479C45.1864 49.0197 45.1508 48.8947 45.0894 48.7817C45.028 48.6688 44.9425 48.5708 44.8388 48.4947C44.7403 48.4086 44.6743 48.2915 44.6518 48.1628C44.6293 48.0342 44.6517 47.9017 44.7152 47.7875C44.7958 47.6609 44.9059 47.5556 45.0359 47.4804C45.166 47.4051 45.3123 47.3623 45.4625 47.3554C45.6219 47.3418 45.7822 47.3644 45.9316 47.4215C46.081 47.4787 46.2154 47.5688 46.3249 47.6852C46.5613 47.9541 46.6938 48.2983 46.6986 48.656C46.6919 49.0288 46.5549 49.3875 46.3113 49.6702C46.0677 49.953 45.7329 50.1421 45.3645 50.2048C44.9848 50.296 44.5868 50.276 44.2182 50.1472C43.8496 50.0183 43.5261 49.7861 43.2866 49.4783C43.0346 49.1483 42.8618 48.7651 42.7816 48.358C42.7014 47.9509 42.7159 47.5309 42.8241 47.1303C42.9391 46.728 43.1432 46.3565 43.4213 46.0434C43.6995 45.7303 44.0445 45.4835 44.431 45.3212C45.2265 44.9484 46.1324 44.8835 46.9731 45.139C47.8138 45.3945 48.5295 45.9523 48.9816 46.7042C49.9642 48.1951 49.7625 50.4107 49.5276 52.5379C49.119 54.7978 49.0618 57.1069 49.3581 59.3841C49.4334 59.6807 49.4851 59.9813 49.5844 60.273L49.931 61.1388C50.0628 61.4203 50.2465 61.6794 50.4052 61.9484C50.5786 62.255 50.8056 62.5283 51.0753 62.7553C51.1741 62.836 51.2784 62.9098 51.3875 62.9761V79.4045C50.8623 79.6258 50.4142 79.9967 50.0991 80.4707C49.7841 80.9447 49.6161 81.5008 49.6161 82.0695V91.267C49.6161 91.8357 49.7841 92.3918 50.0992 92.8658C50.4142 93.3398 50.8623 93.7106 51.3875 93.9319V153.312C50.8623 153.534 50.4142 153.904 50.0992 154.378C49.7841 154.852 49.6161 155.409 49.6161 155.977V165.75C49.6161 166.301 49.7737 166.84 50.0704 167.305C50.3672 167.769 50.7907 168.14 51.2912 168.372L49.6748 223.002C48.8349 223.609 48.151 224.406 47.679 225.328C47.207 226.249 46.9603 227.269 46.9591 228.304C46.9479 229.219 47.14 230.126 47.5218 230.958C47.9035 231.79 48.4653 232.527 49.1669 233.117C45.4486 248.312 43.4404 263.873 43.1797 279.512C41.4139 281.692 39.5518 286.698 39.5518 298.108C39.5518 298.875 39.8571 299.611 40.4007 300.153C40.9443 300.695 41.6815 301 42.4502 301H72.5496C73.3183 301 74.0556 300.695 74.5992 300.153C75.1428 299.611 75.4482 298.875 75.4482 298.108C75.4482 286.698 73.5858 281.692 71.82 279.512C71.5593 263.873 69.5512 248.312 65.833 233.117C66.5345 232.527 67.0963 231.79 67.478 230.958C67.8598 230.126 68.0519 229.219 68.0407 228.304C68.0395 227.269 67.7928 226.249 67.3208 225.328C66.8488 224.406 66.1649 223.609 65.325 223.002L63.7085 168.372C64.2091 168.14 64.6327 167.769 64.9295 167.305C65.2262 166.84 65.3839 166.301 65.3838 165.75V155.977C65.3838 155.409 65.2158 154.852 64.9007 154.378C64.5857 153.905 64.1376 153.534 63.6125 153.312V93.9319C64.1376 93.7106 64.5857 93.3398 64.9007 92.8658C65.2158 92.3918 65.3838 91.8357 65.3838 91.267V82.0695C65.3838 81.5008 65.2158 80.9447 64.9008 80.4707C64.5857 79.9967 64.1376 79.6259 63.6125 79.4045V62.9761C63.7214 62.9097 63.8257 62.8359 63.9245 62.7553C64.1942 62.5283 64.4212 62.255 64.5946 61.9484C64.7534 61.6794 64.937 61.4203 65.0686 61.1388L65.4153 60.273C65.5147 59.9813 65.5663 59.6807 65.6417 59.3841C65.9379 57.1069 65.8807 54.7978 65.4722 52.5379C65.2373 50.4107 65.0357 48.1951 66.0182 46.7042C66.4703 45.9523 67.186 45.3945 68.0267 45.139C68.8674 44.8835 69.7733 44.9485 70.5688 45.3212C70.9553 45.4835 71.3003 45.7303 71.5785 46.0434C71.8566 46.3565 72.0607 46.728 72.1757 47.1303C72.2838 47.5309 72.2983 47.9509 72.2181 48.358C72.1379 48.7651 71.9651 49.1483 71.713 49.4783C71.4735 49.7861 71.1501 50.0183 70.7815 50.1472C70.413 50.2761 70.015 50.296 69.6353 50.2048C69.2669 50.142 68.932 49.953 68.6884 49.6702C68.4449 49.3875 68.3078 49.0288 68.301 48.656C68.306 48.2983 68.4386 47.9541 68.6749 47.6852C68.7844 47.5688 68.9188 47.4786 69.0682 47.4215C69.2176 47.3644 69.378 47.3418 69.5373 47.3554C69.6875 47.3623 69.8338 47.4051 69.9638 47.4804C70.0938 47.5556 70.2038 47.6609 70.2844 47.7875C70.348 47.9017 70.3704 48.0342 70.3479 48.1629C70.3255 48.2915 70.2595 48.4087 70.1609 48.4947C70.072 48.5604 69.9961 48.6421 69.9373 48.7356C69.8152 48.932 69.7761 49.1688 69.8286 49.3939C69.8811 49.619 70.021 49.8142 70.2175 49.9366C70.414 50.059 70.6512 50.0986 70.877 50.0468C71.1027 49.995 71.2987 49.856 71.422 49.6603L71.5252 49.4953C71.7536 49.1366 71.8833 48.7243 71.9014 48.2998C71.9194 47.8753 71.8252 47.4535 71.6281 47.0768C71.432 46.7243 71.152 46.4253 70.8128 46.2062C70.4736 45.987 70.0856 45.8545 69.683 45.8203C69.2907 45.7807 68.8946 45.8299 68.524 45.9642C68.1534 46.0984 67.818 46.3144 67.5427 46.5959C67.0221 47.1443 66.7225 47.8649 66.7013 48.6198C66.6792 49.3711 66.9306 50.105 67.4089 50.6858C67.8799 51.2408 68.5114 51.637 69.2169 51.8199C69.9133 52.0044 70.6482 51.9845 71.3336 51.7628C72.019 51.541 72.6257 51.1267 73.081 50.5695C73.5147 50.0305 73.8177 49.3988 73.9666 48.7238C74.1154 48.0487 74.106 47.3485 73.9391 46.6776C73.692 45.7124 73.1354 44.8543 72.3542 44.2339H86.7956C80.6056 47.4219 77.2057 51.4329 76.6693 56.1933L72.7659 57.6769C72.3002 57.8538 71.9211 58.2035 71.7076 58.6528C71.4942 59.1021 71.463 59.6162 71.6206 60.0879C71.7827 60.5729 72.7845 62.8554 77.3089 63.176C78.3946 65.219 81.3333 72.3065 81.4227 89.2863L78.7903 91.9125C78.5201 92.1821 78.336 92.5256 78.2615 92.8996C78.1869 93.2736 78.2252 93.6612 78.3715 94.0135C78.5177 94.3657 78.7654 94.6668 79.0832 94.8787C79.4009 95.0905 79.7746 95.2036 80.1568 95.2036H82.7682C84.2264 96.2219 88.8826 99.7799 89.4078 104.01C89.0361 104.383 88.7712 104.848 88.6406 105.358C88.5101 105.867 88.5186 106.402 88.6653 106.908C89.3718 109 92.1969 109 93.2605 109C94.324 109 97.1491 109 97.8556 106.908C98.0023 106.403 98.011 105.868 97.8807 105.359C97.7505 104.85 97.486 104.385 97.1149 104.012C97.6104 100.15 101.666 96.6216 103.74 95.2036H106.364C106.746 95.2036 107.12 95.0905 107.438 94.8787C107.756 94.6668 108.003 94.3658 108.15 94.0135C108.296 93.6612 108.334 93.2735 108.26 92.8996C108.185 92.5256 108.001 92.1821 107.731 91.9125L105.098 89.2863C105.187 72.2537 108.115 65.2105 109.206 63.1764C113.736 62.8573 114.738 60.5731 114.9 60.0879C115.058 59.6162 115.027 59.1021 114.813 58.6528C114.6 58.2035 114.221 57.8538 113.755 57.6769ZM95.1324 104.783H91.5999C91.5999 104.783 96.0208 105.157 96.0503 106.114C96.0448 106.617 95.4393 107.072 93.2605 107.072C88.3692 107.072 91.3885 104.783 91.3885 104.783C91.3885 98.2762 83.3572 93.2757 83.3572 93.2757H80.1568L83.3572 90.0827C83.3572 75.6702 81.3745 67.9715 79.9183 64.2574C81.0184 64.5158 82.5659 64.7662 84.3751 65.0037C85.4664 68.2868 87.0768 75.5867 87.108 90.0827H84.0214C84.0214 90.0827 89.7499 91.6006 104.77 91.6851L105.21 92.1244L82.2496 92.4318L95.2445 93.2757H83.9007C83.9007 93.2757 86.1979 93.5788 89.231 94.1118C90.6347 96.8833 91.5808 99.8627 92.0326 102.935C92.0346 100.075 91.6997 97.2237 91.0348 94.4411C92.4031 94.701 93.8474 94.9989 95.2562 95.33C94.7503 97.8336 94.4931 100.381 94.4883 102.935C94.8533 100.426 95.5524 97.9759 96.5672 95.651C97.5302 95.8971 98.4555 96.1588 99.3065 96.4338C97.2471 98.5073 95.1324 101.443 95.1324 104.783ZM80.4561 51.7067C81.0752 51.918 81.7109 52.078 82.3564 52.1849C83.2873 52.3539 84.2378 52.3868 85.1781 52.2825C84.3211 51.8827 83.4101 51.6096 82.4741 51.4719C81.9023 51.3814 81.3248 51.3304 80.7459 51.3191C84.1247 46.9121 90.1843 44.8862 90.369 44.658H96.1522C96.3372 44.8862 102.396 46.9123 105.775 51.3191C105.196 51.3303 104.619 51.3814 104.047 51.4719C103.111 51.6096 102.2 51.8826 101.343 52.2825C102.283 52.3868 103.234 52.3539 104.165 52.1849C104.81 52.078 105.446 51.918 106.065 51.7065C106.922 52.8943 107.516 54.2502 107.808 55.6843C105.656 55.6873 103.648 55.7082 101.773 55.7433C101.604 55.0815 101.407 54.4567 101.186 53.8176C100.829 52.8025 100.406 51.812 99.919 50.8524C98.9719 48.9673 97.7821 47.2137 96.3797 45.6361C97.3528 47.4383 98.0855 49.3599 98.5589 51.3518C98.7936 52.3243 98.9637 53.3112 99.0678 54.3061C99.12 54.7956 99.1586 55.3063 99.1761 55.8022C94.229 55.938 90.3351 56.1743 87.3361 56.4302C87.3364 55.7206 87.3755 55.0115 87.4531 54.3061C87.5573 53.3112 87.7273 52.3243 87.9621 51.3518C88.4355 49.3599 89.1681 47.4383 90.1413 45.6361C88.7389 47.2137 87.549 48.9673 86.602 50.8524C86.1148 51.812 85.6916 52.8025 85.3351 53.8176C84.9972 54.7572 84.73 55.7205 84.5357 56.6997C82.6246 56.87 80.7255 57.1541 78.8484 57.5505H107.995L113.067 59.4782C113.067 59.4782 112.463 61.2857 108.115 61.2857H78.4056C74.0577 61.2857 73.4539 59.4782 73.4539 59.4782L78.5263 57.5505C78.5367 55.4484 79.212 53.4033 80.4561 51.7067ZM32.6434 52.1849C33.289 52.078 33.9246 51.918 34.5437 51.7065C35.4007 52.8943 35.9949 54.2502 36.2869 55.6843C34.1353 55.6873 32.1236 55.707 30.2516 55.7433C30.0829 55.0815 29.8862 54.4567 29.6647 53.8176C29.3082 52.8025 28.8849 51.8119 28.3977 50.8524C27.4507 48.9672 26.2609 47.2136 24.8584 45.6361C25.8316 47.4383 26.5642 49.3599 27.0376 51.3518C27.2725 52.3243 27.4425 53.3112 27.5467 54.3061C27.5989 54.7956 27.6375 55.3063 27.6549 55.8022C22.7079 55.938 18.8139 56.1743 15.8149 56.4302C15.8153 55.7206 15.8543 55.0115 15.932 54.3061C16.0361 53.3112 16.2061 52.3243 16.4409 51.3518C16.9143 49.3598 17.6469 47.4383 18.6201 45.6361C17.2177 47.2136 16.0279 48.9673 15.0808 50.8524C14.5937 51.812 14.1705 52.8025 13.8139 53.8176C13.476 54.7572 13.2088 55.7205 13.0145 56.6997C11.1034 56.87 9.2043 57.1541 7.32723 57.5505H36.4735L41.5459 59.4782C41.5459 59.4782 40.942 61.2857 36.5942 61.2857H6.88432C2.53659 61.2857 1.93266 59.4782 1.93266 59.4782L7.00516 57.5505C7.01559 55.4484 7.69089 53.4032 8.93482 51.7065C9.554 51.918 10.1897 52.078 10.8353 52.1849C11.7661 52.3539 12.7166 52.3868 13.657 52.2825C12.7998 51.8827 11.8889 51.6096 10.9529 51.4719C10.381 51.3814 9.80358 51.3304 9.22468 51.3191C12.6036 46.9121 18.6632 44.8862 18.8477 44.658H24.6309C24.8159 44.8862 30.8751 46.9123 34.2538 51.3191C33.6749 51.3304 33.0975 51.3814 32.5257 51.4719C31.5896 51.6096 30.6787 51.8827 29.8216 52.2825C30.7619 52.3868 31.7125 52.3539 32.6434 52.1849ZM23.6113 104.783H20.0787C20.0787 104.783 24.4995 105.157 24.5291 106.114C24.5236 106.617 23.9181 107.072 21.7393 107.072C16.8481 107.072 19.8674 104.783 19.8674 104.783C19.8674 98.2762 11.8359 93.2757 11.8359 93.2757H8.6355L11.8359 90.0827C11.8359 75.6702 9.85338 67.9715 8.39706 64.2574C9.49708 64.5158 11.0447 64.7662 12.8541 65.0037C13.9452 68.2868 15.5557 75.5867 15.587 90.0827H12.5002C12.5002 90.0827 18.2286 91.6006 33.2488 91.6851L33.689 92.1244L10.7284 92.4318L23.7233 93.2757H12.3794C12.3794 93.2757 14.6767 93.5788 17.7098 94.1118C19.1136 96.8833 20.0596 99.8627 20.5114 102.935C20.5134 100.075 20.1785 97.2237 19.5136 94.4411C20.882 94.701 22.3263 94.9989 23.7351 95.33C23.2292 97.8336 22.972 100.381 22.9672 102.935C23.3321 100.426 24.0312 97.9759 25.0459 95.651C26.009 95.8971 26.9342 96.1588 27.7854 96.4338C25.7259 98.5073 23.6113 101.443 23.6113 104.783ZM17.1815 90.0827C17.1526 76.41 15.7459 68.9926 14.6042 65.2209C16.9888 65.5005 19.6672 65.7588 22.2961 65.9852C22.5001 69.0942 22.5342 72.212 22.3984 75.3247C22.2521 79.023 21.8447 82.7064 21.1793 86.3476C22.3206 82.7919 23.2095 79.1605 23.8393 75.4802C23.9267 74.9749 24.0007 74.4693 24.0807 73.964C22.8237 85.1032 20.8939 89.5406 20.8939 89.5406H25.3624C25.3624 76.6971 26.7331 69.4869 27.5201 66.4038C27.7579 66.4218 27.9942 66.4393 28.2257 66.4564C27.1642 70.5288 26.0208 77.7688 25.9948 90.0827H17.1815ZM29.8538 66.5738L30.3886 66.6115C29.7283 69.0956 28.0597 76.6442 28.0597 89.5406H31.2502C31.0852 81.8991 31.8959 74.2679 33.6628 66.8307L34.2012 66.8649C32.9363 71.1856 31.6426 78.4424 31.6426 90.0827H27.5893C27.6164 77.5548 28.8226 70.4027 29.8538 66.5738ZM61.0758 64.8996C61.0475 66.979 61.0503 69.0582 60.9925 71.1375C60.9342 73.2167 60.8645 75.2961 60.7139 77.3753C60.5633 75.2961 60.4936 73.2167 60.4351 71.1375C60.3775 69.0582 60.3803 66.979 60.3519 64.8996C60.3822 62.8204 60.3768 60.7411 60.4365 58.6619C60.4944 56.5825 60.5644 54.5033 60.7139 52.424C60.8633 54.5033 60.9334 56.5825 60.9913 58.6619C61.051 60.7411 61.0456 62.8204 61.0758 64.8996ZM62.3172 220.014C62.1479 217.951 62.0411 215.887 61.9011 213.823L61.587 207.628C61.3903 203.498 61.2746 199.365 61.1171 195.234C61.038 191.1 60.9111 186.968 60.871 182.833C60.8286 178.698 60.8023 174.563 60.8818 170.425C61.2007 174.552 61.4135 178.682 61.6104 182.812C61.8096 186.942 61.9219 191.075 62.0819 195.206C62.1636 199.339 62.2871 203.472 62.3299 207.606L62.3744 213.809C62.3541 215.877 62.3668 217.945 62.3172 220.014ZM60.4365 109.459C60.4944 104.739 60.5644 100.019 60.7139 95.2992C60.8633 100.019 60.9334 104.739 60.9913 109.459L61.0758 123.619L60.9925 137.778C60.9342 142.498 60.8645 147.218 60.7139 151.938C60.5633 147.218 60.4936 142.498 60.4351 137.778L60.3519 123.619L60.4365 109.459ZM53.199 49.6577V44.237H57.4999V49.2965C58.8603 49.2798 60.2189 49.4008 61.5548 49.6577C60.2189 49.9145 58.8603 50.0355 57.4999 50.0189C56.1396 50.034 54.7811 49.913 53.445 49.6577H53.199ZM62.7886 33.9939C62.7567 31.3431 62.7633 28.6924 62.8428 26.0417L62.8462 25.9256L62.9225 25.8437C63.2052 25.5103 63.4365 25.1366 63.6086 24.735C63.7942 24.3158 63.9441 23.8817 64.0565 23.4374C64.2984 22.535 64.453 21.6116 64.5182 20.6798C64.5572 21.1507 64.5683 21.6235 64.5513 22.0957C64.535 22.5717 64.4891 23.0462 64.4137 23.5165C64.3299 23.991 64.206 24.4576 64.0434 24.9113C63.8913 25.3426 63.6806 25.751 63.4173 26.1252C63.4943 28.7481 63.5015 31.3711 63.47 33.9939C63.4267 36.6447 63.3313 39.2956 63.1292 41.9462C62.9274 39.2956 62.8319 36.6447 62.7886 33.9939ZM50.4816 20.6798C50.4636 19.8806 50.6855 19.0944 51.1189 18.4221H58.2895C58.6879 19.0349 58.8996 19.7499 58.8991 20.4804C58.8079 22.255 58.5032 24.0123 57.9916 25.7145C59.0807 25.7461 60.1661 25.8555 61.2395 26.0416C59.6845 26.2989 58.1099 26.4198 56.5337 26.4029C54.9576 26.4182 53.3831 26.2973 51.8279 26.0416L51.8654 26.0359C51.8113 25.978 50.4816 24.5163 50.4816 20.6798ZM89.4951 40.5053C89.2385 40.8328 89.0206 41.1887 88.8458 41.5661H70.9663C71.4779 41.2602 71.9582 40.9049 72.4002 40.5053H89.4951ZM66.0279 38.8981V36.5741C66.2393 37.0513 66.513 37.4984 66.842 37.9039C67.1573 38.2796 67.5192 38.6137 67.9192 38.8981H66.0279ZM58.1642 11.5615V12.7876H51.2666C50.463 12.86 49.6558 12.6965 48.9441 12.3174C48.2323 11.9383 47.647 11.36 47.2602 10.6536C50.1958 11.0921 54.3027 11.3775 58.1642 11.5615ZM51.8705 28.272H57.4999V41.5935C58.9952 41.5938 60.4882 41.7117 61.965 41.9462C60.3184 42.2036 58.6532 42.3245 56.9866 42.3075C55.3201 42.3229 53.6551 42.2021 52.0083 41.9462H51.8705V28.272ZM48.972 38.8981H47.0806C47.4805 38.6137 47.8425 38.2797 48.1576 37.9039C48.4868 37.4984 48.7606 37.0512 48.972 36.5739V38.8981ZM48.972 40.5053V41.5661H26.154C25.9791 41.1888 25.7612 40.8329 25.5047 40.5053H48.972ZM21.7393 40.5614C22.3626 40.5965 22.9617 40.8145 23.4613 41.188C23.9609 41.5615 24.3389 42.074 24.5477 42.661C24.357 42.3606 24.1318 42.0834 23.8767 41.8351C23.2953 41.2739 22.5434 40.9216 21.7393 40.8335C22.3527 41.1872 22.8285 41.737 23.0896 42.3941C23.206 42.6944 23.2793 43.0096 23.3073 43.3304C23.3205 43.4863 23.3244 43.6428 23.3189 43.7991C21.8546 44.2056 20.3587 44.4934 18.8477 44.658C18.8586 44.6439 18.8553 44.6334 18.8172 44.6334C18.7441 44.6368 18.6713 44.6451 18.5993 44.658C18.5993 40.5614 21.7393 40.5614 21.7393 40.5614ZM54.2859 51.8078H57.4999V79.1793C58.5622 79.1631 59.6222 79.2845 60.6531 79.5406C59.6221 79.7967 58.5622 79.9181 57.4999 79.9019C56.4376 79.9165 55.3778 79.7951 54.3465 79.5406H54.2859V51.8078ZM52.5147 82.0695H57.4999V90.9057C59.0892 90.8887 60.677 91.0096 62.2454 91.267C60.677 91.5243 59.0892 91.6452 57.4999 91.6283C55.9106 91.6435 54.3229 91.5226 52.7543 91.267H52.5147V82.0695ZM54.2859 93.7972H57.4999V153.079C58.563 153.062 59.6238 153.184 60.6556 153.44C59.6237 153.696 58.563 153.817 57.4999 153.801C56.4368 153.816 55.3762 153.694 54.3441 153.44H54.2859V93.7972ZM52.5147 155.977H57.4999V165.389C59.1117 165.372 60.722 165.493 62.3131 165.75C60.722 166.007 59.1117 166.128 57.4999 166.111C55.8881 166.126 54.278 166.006 52.6867 165.75H52.5147V155.977ZM54.2071 168.373H57.4999V221.658C59.1077 221.641 60.714 221.761 62.3011 222.019C60.714 222.276 59.1077 222.397 57.4999 222.38C55.8921 222.395 54.286 222.275 52.6987 222.019H52.5949L54.2071 168.373ZM93.2605 40.5614C93.8839 40.5965 94.483 40.8145 94.9826 41.1881C95.4823 41.5617 95.8602 42.0742 96.069 42.6612C95.8783 42.3607 95.6531 42.0835 95.3979 41.8351C94.8166 41.2739 94.0646 40.9216 93.2605 40.8335C93.8739 41.1872 94.3497 41.737 94.6108 42.3941C94.7271 42.6944 94.8004 43.0096 94.8285 43.3304C94.8416 43.4863 94.8455 43.6428 94.84 43.7991C93.3758 44.2056 91.88 44.4934 90.369 44.658C90.3799 44.6439 90.3766 44.6334 90.3383 44.6334C90.2652 44.6368 90.1924 44.6451 90.1204 44.658C90.1204 40.5614 93.2605 40.5614 93.2605 40.5614ZM88.7025 90.0827C88.6736 76.41 87.2671 68.9926 86.1254 65.2209C88.5098 65.5005 91.1884 65.7588 93.8172 65.9852C94.0213 69.0942 94.0555 72.212 93.9195 75.3247C93.7732 79.023 93.3659 82.7064 92.7006 86.3476C93.8418 82.7919 94.7306 79.1605 95.3604 75.4802C95.4478 74.9748 95.5221 74.469 95.602 73.9633C94.345 85.1032 92.4151 89.5406 92.4151 89.5406H96.8836C96.8836 76.6971 98.2543 69.4868 99.0414 66.4038C99.2793 66.4218 99.5156 66.4395 99.7473 66.4564C98.6858 70.529 97.5425 77.7688 97.5163 90.0827H88.7025ZM101.375 66.5738L101.91 66.6115C101.25 69.0956 99.5808 76.6442 99.5808 89.5406H102.771C102.606 81.8991 103.417 74.2679 105.184 66.8307L105.722 66.8649C104.458 71.1856 103.164 78.4424 103.164 90.0827H99.1108C99.1379 77.5548 100.344 70.4028 101.375 66.5738ZM80.07 33.3427C82.1444 35.5278 84.5271 37.3993 87.143 38.8981H74.3511C74.9807 38.3917 75.4672 37.7305 75.7628 36.9796C76.1092 36.1191 76.1808 35.173 75.9676 34.2704C75.7344 33.347 75.1733 32.5393 74.3884 31.9973C73.6015 31.4522 72.6409 31.2151 71.69 31.3314C71.2006 31.3992 70.7328 31.5762 70.3216 31.8494C69.9103 32.1226 69.5661 32.4848 69.3146 32.9092C69.0506 33.3375 68.8962 33.824 68.865 34.3259C68.8338 34.8277 68.9267 35.3296 69.1356 35.7872C69.3667 36.2585 69.7195 36.6599 70.1577 36.95C70.5959 37.2401 71.1036 37.4085 71.6287 37.4378L71.729 37.444C71.8495 37.4505 71.97 37.4316 72.0826 37.3884C72.1953 37.3452 72.2975 37.2788 72.3826 37.1935C72.4678 37.1081 72.5338 37.0058 72.5766 36.8933C72.6193 36.7807 72.6377 36.6604 72.6306 36.5402C72.6235 36.42 72.5911 36.3027 72.5353 36.1959C72.4796 36.0891 72.4019 35.9953 72.3074 35.9205C72.2128 35.8458 72.1034 35.7918 71.9865 35.7622C71.8695 35.7325 71.7476 35.7278 71.6287 35.7485C71.3999 35.7758 71.1682 35.7305 70.9666 35.6191C70.765 35.5078 70.6036 35.3359 70.5053 35.128C70.4104 34.897 70.3731 34.6465 70.3967 34.398C70.4202 34.1495 70.5039 33.9104 70.6404 33.7012C70.7751 33.4796 70.9583 33.2911 71.1762 33.15C71.3942 33.009 71.6413 32.9189 71.8991 32.8866C72.456 32.8334 73.0135 32.9818 73.4699 33.3046C73.9288 33.6494 74.2535 34.1424 74.3887 34.6995C74.5238 35.2565 74.4609 35.8431 74.2108 36.3591C73.9848 36.9036 73.606 37.3714 73.1201 37.7066C72.6342 38.0417 72.0618 38.2298 71.4713 38.2485C70.8559 38.2622 70.2456 38.1347 69.6875 37.8757C69.1293 37.6167 68.6383 37.2333 68.2522 36.7549C67.8707 36.2684 67.6033 35.7029 67.4696 35.0998C67.3359 34.4967 67.3392 33.8714 67.4795 33.2698C67.7268 32.0142 68.4305 30.894 69.4552 30.1245C70.4742 29.3477 71.7532 28.9908 73.0282 29.1274C74.3657 29.268 75.6415 29.7611 76.7249 30.556C77.9037 31.406 79.0215 32.3371 80.07 33.3427ZM68.7303 28.3086C68.5841 28.4034 68.4388 28.4995 68.3006 28.6039C67.2911 29.3728 66.5063 30.3973 66.0279 31.5711V26.9093C66.2232 26.5569 66.3948 26.192 66.5416 25.817C66.6656 26.1419 66.8251 26.4522 67.0174 26.7422C67.4578 27.3907 68.0444 27.9272 68.7303 28.3086ZM69.6587 17.8769C68.925 18.5971 68.2441 19.369 67.6212 20.1866C67.5477 20.2868 67.4791 20.3973 67.4075 20.5024C67.4051 19.5717 67.2078 18.6518 66.8281 17.8018C66.4485 16.9517 65.8949 16.1902 65.2029 15.566C66.7051 15.3523 68.0961 14.6544 69.1638 13.5786C69.5915 13.138 69.957 12.6414 70.2503 12.1024C70.2749 12.1511 70.2853 12.2011 70.314 12.2492C70.5281 12.5856 70.8341 12.8539 71.196 13.0224C71.5579 13.191 71.9605 13.2529 72.3565 13.2008C72.8058 13.135 73.215 12.906 73.5055 12.5577C73.4281 12.8911 73.3203 13.2166 73.1834 13.5303C72.2597 15.1652 71.0684 16.6343 69.6587 17.8769ZM72.2734 11.4057C72.2832 11.433 72.2868 11.462 72.284 11.4908C72.2812 11.5196 72.2721 11.5474 72.2573 11.5723C72.2424 11.5972 72.2223 11.6184 72.1983 11.6346C72.1743 11.6508 72.147 11.6616 72.1183 11.666C72.0223 11.6767 71.9252 11.6596 71.8387 11.6167C71.7521 11.5737 71.6799 11.5068 71.6305 11.424C71.5781 11.3388 71.5512 11.2404 71.5531 11.1405C71.5557 11.0123 71.587 10.8863 71.6445 10.7718C71.7023 10.6579 71.7851 10.5585 71.8867 10.4811C71.9884 10.4036 72.1063 10.3501 72.2316 10.3245C72.3107 10.3163 72.3905 10.318 72.4692 10.3296C72.3215 10.4619 72.222 10.6394 72.1866 10.8342C72.1511 11.0291 72.1817 11.2301 72.2734 11.4057ZM38.1025 3.99195C38.1025 3.11739 38.6396 2.89167 41.1319 2.89167C44.1514 2.82794 47.171 2.79711 50.1904 2.79918L54.7197 2.79743C56.2295 2.81404 57.7393 2.83955 59.249 2.78798C62.2686 2.71669 65.2881 2.6581 68.3077 2.64068L72.837 2.59546C73.6033 2.56228 74.3709 2.5877 75.1333 2.67147C75.5334 2.71556 75.9259 2.81202 76.3008 2.95836C76.5081 3.03776 76.6984 3.15578 76.8616 3.30613C76.9623 3.39378 77.0403 3.50452 77.0887 3.62884C77.1371 3.75316 77.1546 3.88735 77.1397 4.01989C77.141 4.0095 77.1459 4.00248 77.1471 3.99195L77.139 4.05473C77.1411 4.04204 77.1382 4.03231 77.1397 4.01989C77.0933 4.251 77.0005 4.47034 76.8668 4.66465C76.7331 4.85897 76.5614 5.02422 76.3618 5.15042C76.0237 5.40396 75.6656 5.62984 75.291 5.82586C74.5577 6.21086 73.8002 6.54821 73.0233 6.83582C71.4841 7.4166 69.9149 7.91521 68.3224 8.32952C69.8713 7.78505 71.4123 7.21843 72.9057 6.55204C73.6492 6.21426 74.3894 5.86865 75.0887 5.46526C75.4348 5.26873 75.7646 5.04486 76.0748 4.79577C76.3681 4.55817 76.6483 4.23779 76.6476 3.99195L76.6475 3.97265L76.6558 3.92877C76.676 3.81982 76.4178 3.54711 76.0992 3.45679C75.7652 3.34138 75.4176 3.26985 75.065 3.24402C74.3235 3.19276 73.5795 3.18484 72.837 3.22027L70.9913 3.25982C71.778 3.60111 71.7263 4.17123 70.3823 5.09777C68.3963 6.46658 51.9282 8.80204 43.2813 7.18279C40.8856 6.28528 38.1025 5.0219 38.1025 3.99195ZM42.5513 10.3292C42.6232 10.3193 42.6959 10.3177 42.7682 10.3245C42.8935 10.3501 43.0114 10.4037 43.113 10.4811C43.2147 10.5586 43.2975 10.6579 43.3552 10.7718C43.4128 10.8863 43.4441 11.0123 43.4466 11.1405C43.4485 11.2404 43.4217 11.3388 43.3693 11.424C43.3199 11.5068 43.2476 11.5737 43.1611 11.6166C43.0746 11.6596 42.9775 11.6767 42.8815 11.666C42.8528 11.6616 42.8255 11.6509 42.8015 11.6347C42.7775 11.6185 42.7574 11.5972 42.7425 11.5723C42.7277 11.5474 42.7186 11.5196 42.7158 11.4908C42.713 11.462 42.7166 11.433 42.7264 11.4057C42.8003 11.2659 42.8366 11.1094 42.8318 10.9514C42.8239 10.7153 42.7231 10.4918 42.5513 10.3292ZM45.3409 17.8769C43.9314 16.6342 42.74 15.1651 41.8162 13.5303C41.6795 13.2166 41.5717 12.891 41.4943 12.5577C41.7848 12.906 42.194 13.135 42.6433 13.2008C43.0393 13.2529 43.4419 13.191 43.8038 13.0224C44.1657 12.8538 44.4717 12.5856 44.6858 12.2492C44.7146 12.2011 44.7248 12.151 44.7494 12.1024C45.0428 12.6413 45.4083 13.138 45.8359 13.5786C46.9037 14.6544 48.2947 15.3523 49.7969 15.566C49.105 16.1902 48.5514 16.9517 48.1717 17.8018C47.7921 18.6519 47.5947 19.5718 47.5923 20.5025C47.5207 20.3975 47.4521 20.2869 47.3786 20.1866C46.7557 19.369 46.0747 18.5971 45.3409 17.8769ZM47.9824 26.7422C48.1747 26.4521 48.3342 26.1418 48.4582 25.8168C48.6049 26.192 48.7766 26.5569 48.972 26.9093V31.5714C48.4935 30.3975 47.7087 29.3729 46.6991 28.6039C46.561 28.4995 46.4156 28.4034 46.2695 28.3086C46.9553 27.9272 47.542 27.3907 47.9824 26.7422ZM34.9298 33.3427C35.9783 32.3371 37.0961 31.406 38.2749 30.556C39.3582 29.7611 40.6341 29.268 41.9715 29.1274C43.2466 28.9907 44.5256 29.3477 45.5446 30.1245C46.5693 30.894 47.2729 32.0142 47.5202 33.2698C47.6604 33.8714 47.6639 34.4967 47.5302 35.0998C47.3965 35.7029 47.1291 36.2684 46.7476 36.7549C46.3615 37.2333 45.8705 37.6168 45.3123 37.8757C44.7541 38.1347 44.1437 38.2622 43.5283 38.2485C42.9379 38.2298 42.3655 38.0417 41.8796 37.7065C41.3937 37.3714 41.015 36.9035 40.789 36.3591C40.5389 35.8431 40.476 35.2566 40.6111 34.6995C40.7462 34.1424 41.0709 33.6494 41.5298 33.3046C41.9862 32.9818 42.5438 32.8334 43.1007 32.8866C43.3585 32.9189 43.6056 33.009 43.8235 33.15C44.0415 33.2911 44.2246 33.4795 44.3592 33.7012C44.4958 33.9104 44.5795 34.1495 44.603 34.398C44.6266 34.6465 44.5894 34.897 44.4945 35.128C44.3962 35.3359 44.2348 35.5078 44.0332 35.6191C43.8316 35.7305 43.5999 35.7758 43.3711 35.7485C43.3057 35.7375 43.2393 35.7337 43.1731 35.7372C43.0608 35.7439 42.9509 35.7726 42.8498 35.8217C42.7486 35.8708 42.6581 35.9392 42.5834 36.0232C42.5088 36.1072 42.4514 36.205 42.4147 36.311C42.3779 36.4171 42.3624 36.5293 42.3691 36.6414C42.3759 36.7534 42.4046 36.863 42.4538 36.9639C42.503 37.0649 42.5716 37.1552 42.6558 37.2296C42.7399 37.3041 42.838 37.3613 42.9443 37.398C43.0506 37.4347 43.1631 37.4501 43.2754 37.4434L43.3711 37.4378C43.8962 37.4085 44.4039 37.2401 44.8421 36.95C45.2803 36.6599 45.633 36.2585 45.8641 35.7872C46.073 35.3296 46.166 34.8278 46.1348 34.3259C46.1036 33.824 45.9492 33.3375 45.6852 32.9092C45.4337 32.4848 45.0895 32.1226 44.6782 31.8494C44.2669 31.5762 43.7992 31.3992 43.3098 31.3314C42.3588 31.2151 41.3983 31.4522 40.6114 31.9973C39.8265 32.5394 39.2653 33.347 39.032 34.2704C38.8189 35.173 38.8905 36.1191 39.2369 36.9796C39.5325 37.7305 40.0191 38.3918 40.6487 38.8981H27.8567C30.4726 37.3993 32.8554 35.5277 34.9298 33.3427ZM49.3351 44.2339H50.1282C50.1878 44.2794 50.2372 44.3368 50.3004 44.3775V45.2537C50.0294 44.8693 49.7043 44.5258 49.3351 44.2339ZM51.1318 59.7744C51.055 59.5456 51.0191 59.2979 50.9583 59.0615C50.7363 56.9571 50.8503 54.8309 51.296 52.7622C51.3313 52.5062 51.3559 52.2418 51.3875 51.9825V60.4284L51.1318 59.7744ZM52.5147 224.69H57.4999V231.397C59.1077 231.38 60.714 231.501 62.3011 231.758C60.714 232.016 59.1077 232.137 57.4999 232.12C55.8921 232.135 54.286 232.014 52.6987 231.758H52.5147C51.7703 231.524 51.1163 231.067 50.641 230.449C50.1658 229.831 49.8923 229.082 49.8577 228.304C49.9026 227.51 50.1775 226.746 50.6491 226.104C51.1207 225.462 51.7688 224.971 52.5147 224.69ZM51.8673 234.289H57.4999V277.871C59.0959 277.879 60.6919 277.889 62.2879 277.954C63.8839 278.013 65.4799 278.082 67.0759 278.232C65.4799 278.383 63.8839 278.452 62.2879 278.511C60.6919 278.576 59.0959 278.586 57.4999 278.594C55.9038 278.585 54.3078 278.575 52.7118 278.509C51.1159 278.451 49.5199 278.382 47.924 278.232H46.0945C46.4621 263.423 48.3971 248.693 51.8673 234.289ZM51.3889 298.385C49.3521 298.327 47.3151 298.257 45.2782 298.108H42.4502C42.4502 282.445 46.0734 280.758 46.0734 280.758H57.4999V297.747C59.5369 297.776 61.5737 297.773 63.6107 297.83C65.6477 297.888 67.6847 297.958 69.7215 298.108C67.6847 298.258 65.6477 298.328 63.6107 298.386C61.5737 298.444 59.5369 298.441 57.4999 298.469C55.4629 298.439 53.4259 298.444 51.3889 298.385ZM72.2641 289.041C72.4315 290.55 72.5243 292.063 72.5629 293.575C72.6181 295.087 72.5857 296.599 72.5496 298.108C72.4637 295.096 72.2042 292.091 71.7724 289.109C71.5584 287.629 71.2325 286.168 70.7975 284.737C70.5782 284.035 70.3014 283.351 69.9698 282.694C69.8086 282.374 69.6223 282.067 69.4126 281.776C69.2333 281.52 69.0133 281.296 68.7613 281.111L68.5409 280.978L68.536 280.758C68.4441 276.64 68.3425 272.522 67.9862 268.418C67.8503 266.363 67.6139 264.316 67.4537 262.263C67.2228 260.216 67.0276 258.165 66.7449 256.124C66.2087 252.04 65.6092 247.961 64.901 243.898C64.1767 239.839 63.4107 235.784 62.4851 231.758C63.673 235.716 64.6567 239.737 65.4887 243.786C66.3405 247.833 67.0601 251.909 67.6086 256.009C68.1739 260.106 68.6701 264.219 68.9164 268.351C69.2165 272.415 69.3099 276.493 69.3155 280.568C69.5861 280.791 69.8229 281.052 70.0187 281.343C70.2411 281.672 70.4371 282.018 70.6049 282.378C70.9324 283.079 71.2012 283.807 71.4086 284.553C71.8071 286.025 72.0931 287.526 72.2641 289.041ZM64.0415 59.0615C63.9807 59.2979 63.9448 59.5456 63.8679 59.7744L63.6125 60.4284V51.9832C63.644 52.2423 63.6685 52.5065 63.7038 52.7622C64.1495 54.8309 64.2635 56.9571 64.0415 59.0615ZM64.6994 45.2536V44.3775C64.7626 44.3368 64.8121 44.2794 64.8718 44.2339H65.6647C65.2955 44.5257 64.9704 44.8692 64.6994 45.2536Z" fill="#723E30"/>
<path d="M112.262 59.6788L107.874 58.0322L79.5731 60.8035H106.696C111.256 60.8035 112.262 59.6788 112.262 59.6788Z" fill="#723E30"/>
<path d="M84.0431 65.4627L82.2301 65.1816C85.9337 72.8126 86.6182 89.5407 86.6182 89.5407C86.6182 73.3751 84.0431 65.4627 84.0431 65.4627Z" fill="#723E30"/>
<path d="M95.6304 106.161C95.6304 105.634 93.7114 105.369 93.7114 105.369C93.6724 105.658 93.5714 105.934 93.4154 106.18C93.2594 106.426 93.0519 106.635 92.8073 106.793C93.8792 106.793 95.6304 106.688 95.6304 106.161Z" fill="#723E30"/>
<path d="M93.2606 52.7308C94.7047 52.7476 96.1472 52.6267 97.5682 52.3697C96.1472 52.1126 94.7047 51.9916 93.2606 52.0084C91.8165 51.9931 90.3743 52.1141 88.953 52.3697C90.3743 52.6251 91.8165 52.746 93.2606 52.7308Z" fill="#723E30"/>
<path d="M40.7408 59.6788L36.3527 58.0322L8.05179 60.8035H35.1753C39.7344 60.8035 40.7408 59.6788 40.7408 59.6788Z" fill="#723E30"/>
<path d="M12.522 65.4627L10.7089 65.1816C14.4126 72.8126 15.0969 89.5407 15.0969 89.5407C15.0969 73.3751 12.522 65.4627 12.522 65.4627Z" fill="#723E30"/>
<path d="M24.1091 106.161C24.1091 105.634 22.1903 105.369 22.1903 105.369C22.1512 105.658 22.0502 105.934 21.8942 106.18C21.7381 106.426 21.5307 106.635 21.286 106.793C22.3579 106.793 24.1091 106.688 24.1091 106.161Z" fill="#723E30"/>
<path d="M17.4319 52.3697C18.8531 52.6251 20.2953 52.746 21.7394 52.7308C23.1835 52.7476 24.6259 52.6267 26.0469 52.3697C24.6259 52.1126 23.1835 51.9916 21.7394 52.0084C20.2953 51.9931 18.8531 52.1141 17.4319 52.3697Z" fill="#723E30"/>
</g>
<defs>
<clipPath id="clip0_504_1356">
<rect width="115" height="301" fill="white"/>
</clipPath>
</defs>
</svg>
