<svg width="1512" height="658" viewBox="0 0 1512 658" fill="none" xmlns="http://www.w3.org/2000/svg">
<g style="mix-blend-mode:soft-light" opacity="0.8">
<path d="M200.15 1658L757 755L-10.55 1658H200.15ZM538.273 1658L757 755L385.767 1658H538.273ZM-146 1522.55L757 755L-146 1311.85V1522.55ZM-146 1126.23L757 755L-146 973.727V1126.23ZM1660 973.727L757 755L1660 1126.23V973.727ZM826.23 1658L757 755L687.77 1658H826.23ZM-146 824.23L757 755L-146 685.77V824.23ZM1660 1311.85L757 755L1660 1522.55V1311.85ZM1524.55 1658L757 755L1313.85 1658H1524.55ZM1128.23 1658L757 755L975.727 1658H1128.23ZM1660 -12.55L757 755L1660 198.15V-12.55ZM1313.85 -148L757 755L1524.55 -148H1313.85ZM1660 685.77L757 755L1660 824.23V685.77ZM975.727 -148L757 755L1128.23 -148H975.727ZM1660 383.767L757 755L1660 536.273V383.767ZM385.767 -148L757 755L538.273 -148H385.767ZM-10.55 -148L757 755L200.15 -148H-10.55ZM687.77 -148L757 755L826.23 -148H687.77ZM-146 198.15L757 755L-146 -12.55V198.15ZM-146 536.273L757 755L-146 383.767V536.273Z" fill="url(#paint0_radial_789_3126)"/>
</g>
<defs>
<radialGradient id="paint0_radial_789_3126" cx="0" cy="0" r="1" gradientUnits="userSpaceOnUse" gradientTransform="translate(757 755) scale(903)">
<stop stop-color="white" stop-opacity="0"/>
<stop offset="0.3335" stop-color="white" stop-opacity="0.11"/>
<stop offset="0.6479" stop-color="white" stop-opacity="0.28"/>
<stop offset="1" stop-color="white" stop-opacity="0.56"/>
</radialGradient>
</defs>
</svg>
