<svg width="713" height="143" viewBox="0 0 713 143" fill="none" xmlns="http://www.w3.org/2000/svg">
<g clip-path="url(#clip0_504_1265)">
<path d="M570.997 111.68L571.467 58.5815L596.574 77.3637L603.911 77.4366L604.024 64.7411C604.03 64.1291 604.124 63.5213 604.303 62.9361C600.622 59.0237 598.114 54.1606 597.066 48.9002C596.018 43.6398 596.471 38.1932 598.374 33.1802C600.277 28.1673 603.553 23.7892 607.83 20.5441C612.106 17.299 617.212 15.3172 622.566 14.8241C627.919 14.3311 633.306 15.3467 638.113 17.7553C642.919 20.1638 646.953 23.8687 649.755 28.4484C652.557 33.0281 654.015 38.2987 653.962 43.6605C653.91 49.0223 652.349 54.26 649.458 58.7777L659.172 58.8744C656.459 54.6004 655.06 49.6291 655.148 44.5743C655.235 39.5196 656.805 34.6027 659.664 30.4309C662.523 26.2591 666.545 23.015 671.235 21.0993C675.924 19.1835 681.075 18.68 686.051 19.6509C691.028 20.6218 695.612 23.0245 699.237 26.5625C702.862 30.1004 705.371 34.6186 706.452 39.5592C707.533 44.4997 707.14 49.6462 705.321 54.3632C703.502 59.0801 700.337 63.161 696.217 66.1019L696.172 71.1582L703.611 70.4242L703.58 70.1194C703.568 70.0006 703.58 69.8807 703.614 69.7664C703.649 69.6522 703.706 69.5459 703.781 69.4536C703.857 69.3613 703.951 69.2848 704.056 69.2285C704.161 69.1722 704.277 69.1371 704.396 69.1254L713.171 68.2596C713.411 68.2359 713.651 68.3084 713.838 68.4612C714.026 68.6141 714.144 68.8347 714.168 69.0746L714.492 72.301C714.516 72.5409 714.444 72.7803 714.291 72.9667C714.138 73.1531 713.917 73.2712 713.676 73.2949L704.902 74.1608C704.661 74.1845 704.421 74.1119 704.234 73.9591C704.047 73.8063 703.928 73.5856 703.904 73.3458L703.866 72.97L696.15 73.7314L696.077 81.9615L698.12 81.9819C698.503 81.9857 698.881 82.0646 699.234 82.2142C699.586 82.3637 699.906 82.581 700.174 82.8536C700.442 83.1262 700.654 83.4488 700.797 83.8029C700.941 84.157 701.013 84.5357 701.009 84.9174L700.984 87.7573L706.244 87.8096C706.521 87.8123 706.795 87.8695 707.05 87.9778C707.305 88.0861 707.537 88.2434 707.731 88.4408C707.925 88.6382 708.079 88.8718 708.182 89.1282C708.286 89.3846 708.338 89.6588 708.336 89.9352L708.267 97.753C708.264 98.0294 708.207 98.3025 708.099 98.5569C707.991 98.8112 707.833 99.0417 707.635 99.2352C707.438 99.4287 707.204 99.5814 706.947 99.6846C706.69 99.7879 706.415 99.8396 706.137 99.8369L700.878 99.7845L700.852 102.624C700.849 103.006 700.77 103.383 700.621 103.734C700.471 104.086 700.254 104.404 699.981 104.671C699.708 104.938 699.384 105.149 699.029 105.292C698.675 105.434 698.295 105.506 697.912 105.502L695.868 105.482L695.814 111.629C695.807 112.471 695.633 113.304 695.303 114.079C694.973 114.854 694.492 115.556 693.89 116.146C693.287 116.736 692.574 117.201 691.791 117.516C691.008 117.83 690.17 117.988 689.325 117.979L659.106 117.679L659.077 121.02L659.68 121.026C660.102 121.03 660.519 121.117 660.908 121.282C661.297 121.447 661.649 121.687 661.945 121.988C662.241 122.289 662.475 122.645 662.633 123.035C662.792 123.426 662.871 123.844 662.867 124.265L662.863 124.801L683.097 129.828L683.201 129.409C683.242 129.246 683.314 129.092 683.414 128.956C683.515 128.821 683.641 128.707 683.785 128.62C683.93 128.533 684.09 128.476 684.257 128.451C684.424 128.426 684.594 128.434 684.758 128.475L696.831 131.475C696.995 131.515 697.149 131.588 697.285 131.688C697.42 131.788 697.535 131.914 697.622 132.058C697.709 132.202 697.767 132.362 697.792 132.529C697.818 132.695 697.81 132.865 697.769 133.029L696.665 137.466C696.583 137.796 696.373 138.08 696.081 138.255C695.789 138.43 695.439 138.482 695.108 138.4L683.035 135.4C682.872 135.36 682.717 135.287 682.581 135.187C682.446 135.087 682.331 134.961 682.244 134.817C682.157 134.672 682.099 134.512 682.074 134.346C682.049 134.179 682.057 134.01 682.097 133.846L682.226 133.329L662.83 128.51L662.801 131.749C662.797 132.17 662.711 132.586 662.545 132.974C662.38 133.361 662.14 133.713 661.839 134.007C661.538 134.302 661.181 134.535 660.79 134.692C660.398 134.85 659.979 134.928 659.557 134.924L639.455 134.724C639.033 134.72 638.616 134.633 638.227 134.468C637.838 134.303 637.486 134.063 637.19 133.762C636.894 133.461 636.66 133.106 636.502 132.715C636.343 132.324 636.264 131.906 636.268 131.485L636.334 124.001C636.341 123.151 636.687 122.338 637.296 121.743C637.904 121.147 638.726 120.818 639.579 120.826L640.181 120.832L640.211 117.491L609.992 117.191C608.286 117.174 606.656 116.482 605.461 115.267C604.265 114.052 603.602 112.413 603.617 110.712L603.769 93.473L596.432 93.4001L570.997 111.68ZM626.666 52.7044C626.485 52.3412 626.211 52.0317 625.872 51.8072C625.534 51.5827 625.142 51.451 624.736 51.4254C624.33 51.3998 623.925 51.4811 623.561 51.6613C623.197 51.8414 622.887 52.114 622.662 52.4517L618.655 58.4715L629.595 58.5802L626.666 52.7044ZM629.497 41.2386C629.078 40.3984 628.419 39.7006 627.603 39.2335C626.787 38.7664 625.85 38.5509 624.912 38.6144C623.974 38.6779 623.076 39.0174 622.332 39.59C621.587 40.1627 621.031 40.9427 620.731 41.8315C620.432 42.7203 620.404 43.678 620.65 44.5834C620.897 45.4888 621.407 46.3013 622.116 46.9181C622.825 47.5349 623.702 47.9284 624.635 48.0487C625.567 48.169 626.515 48.0108 627.357 47.5941C628.486 47.0353 629.346 46.0517 629.747 44.8599C630.149 43.668 630.059 42.3654 629.497 41.2386ZM601.11 47.6057C601.891 52.0173 603.883 56.1279 606.866 59.4805C607.942 58.7563 609.214 58.3762 610.513 58.3905L611.733 58.4027L617.827 49.248C618.051 48.9104 618.183 48.5196 618.208 48.115C618.233 47.7103 618.151 47.3061 617.97 46.9428C617.789 46.5796 617.516 46.2702 617.177 46.0457C616.838 45.8212 616.446 45.6895 616.04 45.6639L603.531 44.8746C603.179 44.8535 602.827 44.9126 602.502 45.0472C602.176 45.1818 601.886 45.3885 601.653 45.6516C601.419 45.9148 601.249 46.2274 601.155 46.566C601.061 46.9045 601.046 47.26 601.11 47.6057ZM609.449 24.641C605.874 27.6556 603.235 31.6234 601.84 36.0809C601.732 36.4159 601.703 36.7711 601.754 37.1194C601.804 37.4677 601.934 37.8 602.133 38.0911C602.331 38.3822 602.594 38.6243 602.9 38.7993C603.206 38.9742 603.549 39.0773 603.901 39.1007L616.4 39.8893C616.806 39.9149 617.211 39.8335 617.575 39.6534C617.939 39.4732 618.249 39.2006 618.474 38.863C618.698 38.5254 618.83 38.1346 618.855 37.7299C618.88 37.3253 618.798 36.921 618.617 36.5578L613.038 25.3647C612.88 25.05 612.652 24.7752 612.371 24.5613C612.091 24.3474 611.765 24.1999 611.419 24.1302C611.073 24.0604 610.716 24.0702 610.375 24.1587C610.033 24.2472 609.716 24.4121 609.449 24.641ZM633.569 20.379C629.162 18.7931 624.394 18.4906 619.823 19.5069C619.478 19.5812 619.155 19.7329 618.878 19.9505C618.601 20.1681 618.377 20.4459 618.224 20.7627C618.071 21.0795 617.992 21.4271 617.993 21.779C617.995 22.1309 618.077 22.478 618.233 22.7937L623.812 33.9869C623.993 34.3501 624.267 34.6595 624.606 34.884C624.945 35.1085 625.337 35.2402 625.743 35.2658C626.148 35.2914 626.554 35.21 626.918 35.0298C627.282 34.8497 627.592 34.5771 627.816 34.2394L634.739 23.8399C634.933 23.5462 635.057 23.2122 635.102 22.8633C635.147 22.5143 635.112 22.1596 635 21.826C634.887 21.4925 634.7 21.1888 634.452 20.9381C634.204 20.6873 633.902 20.4961 633.569 20.379ZM649.369 39.0857C648.547 34.4774 646.415 30.2002 643.226 26.7633C642.989 26.5036 642.695 26.3012 642.367 26.1713C642.04 26.0414 641.687 25.9875 641.336 26.0137C640.984 26.0399 640.644 26.1454 640.339 26.3224C640.035 26.4993 639.775 26.743 639.58 27.035L632.652 37.4433C632.427 37.7809 632.295 38.1717 632.27 38.5763C632.245 38.981 632.327 39.3852 632.508 39.7485C632.689 40.1117 632.963 40.4211 633.302 40.6456C633.64 40.8701 634.032 41.0018 634.438 41.0274L646.948 41.8168C647.3 41.8379 647.651 41.7789 647.977 41.6443C648.302 41.5096 648.592 41.3029 648.826 41.0398C649.059 40.7767 649.229 40.464 649.323 40.1254C649.417 39.7869 649.433 39.4313 649.369 39.0857ZM648.639 50.6104C648.746 50.2754 648.776 49.9202 648.725 49.5719C648.674 49.2236 648.544 48.8913 648.346 48.6003C648.147 48.3092 647.885 48.067 647.578 47.8921C647.272 47.7171 646.93 47.6141 646.578 47.5906L634.078 46.8019C633.673 46.7763 633.267 46.8577 632.903 47.0379C632.539 47.218 632.229 47.4907 632.005 47.8283C631.78 48.1659 631.648 48.5567 631.623 48.9614C631.598 49.3661 631.68 49.7703 631.861 50.1336L636.104 58.645L644.271 58.7262C646.227 56.3199 647.709 53.5664 648.639 50.6104ZM678.35 59.0651L678.402 53.17C678.405 52.8036 678.312 52.4428 678.131 52.1237C677.95 51.8046 677.688 51.5385 677.371 51.3522C677.055 51.1658 676.695 51.0658 676.327 51.0621C675.96 51.0585 675.598 51.1513 675.279 51.3313L665.429 56.8758C665.072 57.0768 664.783 57.3788 664.599 57.7438C664.414 58.1087 664.342 58.5202 664.392 58.9262L678.35 59.0651ZM659.899 38.6286C658.669 42.6737 658.631 46.9873 659.789 51.0562C659.874 51.3623 660.028 51.6452 660.239 51.8836C660.449 52.1219 660.711 52.3094 661.005 52.4318C661.299 52.5542 661.617 52.6084 661.935 52.5902C662.253 52.572 662.562 52.482 662.84 52.3269L672.697 46.7777C673.017 46.5977 673.284 46.3368 673.47 46.0214C673.657 45.706 673.757 45.3471 673.76 44.9807C673.763 44.6144 673.67 44.2535 673.489 43.9345C673.308 43.6154 673.046 43.3493 672.73 43.1629L662.972 37.4189C662.697 37.2583 662.389 37.162 662.072 37.1375C661.754 37.113 661.436 37.1609 661.14 37.2774C660.843 37.394 660.578 37.5762 660.363 37.8103C660.148 38.0444 659.99 38.3242 659.899 38.6286ZM678.646 25.5966C678.648 25.2786 678.577 24.9643 678.439 24.6776C678.3 24.3908 678.099 24.1392 677.848 23.9417C677.598 23.7443 677.306 23.6062 676.995 23.538C676.683 23.4698 676.36 23.4733 676.05 23.5481C671.932 24.515 668.175 26.6312 665.221 29.6496C664.996 29.8754 664.827 30.1493 664.725 30.4504C664.622 30.7514 664.59 31.0719 664.631 31.3873C664.672 31.7027 664.784 32.0049 664.959 32.2708C665.134 32.5368 665.367 32.7595 665.641 32.9222L675.391 38.6615C675.707 38.8478 676.067 38.9478 676.435 38.9515C676.802 38.9551 677.164 38.8623 677.484 38.6823C677.803 38.5022 678.07 38.2414 678.256 37.926C678.443 37.6105 678.543 37.2516 678.546 36.8852L678.646 25.5966ZM676.799 45.011C676.791 45.8584 677.036 46.6893 677.502 47.3986C677.967 48.1079 678.634 48.6638 679.416 48.9959C680.198 49.328 681.061 49.4214 681.896 49.2644C682.731 49.1074 683.5 48.7069 684.106 48.1136C684.713 47.5204 685.129 46.761 685.302 45.9315C685.475 45.102 685.397 44.2396 685.079 43.4535C684.761 42.6673 684.216 41.9926 683.514 41.5148C682.811 41.037 681.983 40.7774 681.133 40.769C679.994 40.7577 678.897 41.1982 678.084 41.9938C677.271 42.7893 676.809 43.8746 676.799 45.011ZM697.24 29.9679C694.339 26.8913 690.621 24.7007 686.52 23.6521C686.211 23.5711 685.889 23.5613 685.576 23.6233C685.263 23.6853 684.969 23.8175 684.715 24.0099C684.462 24.2024 684.255 24.45 684.112 24.7339C683.969 25.0178 683.892 25.3307 683.888 25.6487L683.788 36.9374C683.785 37.3038 683.879 37.6646 684.06 37.9837C684.24 38.3028 684.502 38.5688 684.819 38.7552C685.135 38.9415 685.495 39.0415 685.863 39.0452C686.23 39.0488 686.592 38.956 686.912 38.7759L696.761 33.2315C697.038 33.0743 697.275 32.8563 697.455 32.5939C697.635 32.3315 697.752 32.0316 697.798 31.717C697.845 31.4024 697.818 31.0814 697.721 30.7783C697.625 30.4753 697.46 30.1981 697.24 29.9679ZM702.291 51.4789C703.521 47.4338 703.559 43.12 702.401 39.0511C702.316 38.745 702.162 38.4621 701.952 38.2237C701.741 37.9854 701.479 37.798 701.185 37.6755C700.891 37.5531 700.573 37.499 700.255 37.5172C699.937 37.5353 699.628 37.6254 699.35 37.7806L689.493 43.3296C689.173 43.5096 688.907 43.7704 688.72 44.0859C688.534 44.4013 688.434 44.7602 688.43 45.1266C688.427 45.4929 688.521 45.8538 688.702 46.1729C688.882 46.492 689.144 46.7581 689.461 46.9444L699.218 52.6886C699.493 52.8493 699.801 52.9455 700.118 52.97C700.436 52.9945 700.755 52.9467 701.051 52.8301C701.347 52.7136 701.612 52.5314 701.827 52.2973C702.042 52.0632 702.201 51.7833 702.291 51.4789ZM696.549 57.1852L686.799 51.4459C686.483 51.2595 686.123 51.1595 685.755 51.1559C685.388 51.1522 685.026 51.2451 684.707 51.4251C684.387 51.6051 684.12 51.8659 683.934 52.1814C683.747 52.4968 683.648 52.8557 683.644 53.2221L683.592 59.1172L689.846 59.1794C690.904 59.1894 691.944 59.4601 692.873 59.9673C693.802 60.4746 694.591 61.2027 695.17 62.087C695.799 61.5771 696.4 61.0333 696.97 60.4579C697.194 60.2321 697.363 59.9582 697.466 59.6571C697.568 59.356 697.6 59.0356 697.559 58.7202C697.519 58.4047 697.407 58.1026 697.232 57.8366C697.056 57.5707 696.823 57.3479 696.549 57.1852Z" fill="#E6D6B5"/>
<path d="M0.00244141 -0.271484L571.5 58.5L571.002 111.729H0.00244141V-0.271484Z" fill="url(#paint0_linear_504_1265)"/>
</g>
<defs>
<linearGradient id="paint0_linear_504_1265" x1="572" y1="81.5" x2="2.99996" y2="56" gradientUnits="userSpaceOnUse">
<stop stop-color="white" stop-opacity="0.4"/>
<stop offset="1" stop-color="white" stop-opacity="0.2"/>
</linearGradient>
<clipPath id="clip0_504_1265">
<rect width="713" height="143" fill="white" transform="matrix(-1 0 0 1 713 0)"/>
</clipPath>
</defs>
</svg>
