<svg width="712" height="143" viewBox="0 0 712 143" fill="none" xmlns="http://www.w3.org/2000/svg">
<g clip-path="url(#clip0_504_1262)">
<path d="M142.003 111.68L141.533 58.5815L116.426 77.3637L109.089 77.4366L108.976 64.7411C108.97 64.1291 108.876 63.5213 108.697 62.9361C112.378 59.0237 114.886 54.1606 115.934 48.9002C116.982 43.6398 116.529 38.1932 114.626 33.1802C112.723 28.1673 109.447 23.7892 105.17 20.5441C100.894 17.299 95.788 15.3172 90.4344 14.8241C85.0808 14.3311 79.6942 15.3467 74.8875 17.7553C70.0807 20.1638 66.0469 23.8687 63.2449 28.4484C60.4429 33.0281 58.9853 38.2987 59.0378 43.6605C59.0904 49.0223 60.651 54.26 63.5422 58.7777L53.828 58.8744C56.5408 54.6004 57.9398 49.6291 57.8524 44.5743C57.765 39.5196 56.1949 34.6027 53.336 30.4309C50.4771 26.2591 46.4547 23.015 41.7653 21.0993C37.076 19.1835 31.9251 18.68 26.9488 19.6509C21.9724 20.6218 17.3885 23.0245 13.7631 26.5625C10.1376 30.1004 7.62942 34.6186 6.54818 39.5592C5.46694 44.4997 5.86002 49.6462 7.67886 54.3632C9.49771 59.0801 12.6627 63.161 16.7829 66.1019L16.8277 71.1582L9.38937 70.4242L9.4199 70.1194C9.43184 70.0006 9.42021 69.8807 9.38566 69.7664C9.35111 69.6522 9.29432 69.5459 9.21854 69.4536C9.14276 69.3613 9.04948 69.2848 8.94401 69.2285C8.83854 69.1722 8.72296 69.1371 8.60387 69.1254L-0.170629 68.2596C-0.411151 68.2359 -0.651382 68.3084 -0.838479 68.4612C-1.02558 68.6141 -1.14421 68.8347 -1.16829 69.0746L-1.49215 72.301C-1.51617 72.5409 -1.44369 72.7803 -1.29065 72.9667C-1.1376 73.1531 -0.916514 73.2712 -0.676009 73.2949L8.09849 74.1608C8.33901 74.1845 8.57924 74.1119 8.76633 73.9591C8.95343 73.8063 9.07206 73.5856 9.09615 73.3458L9.13384 72.97L16.8505 73.7314L16.9233 81.9615L14.8797 81.9819C14.4969 81.9857 14.1186 82.0646 13.7662 82.2142C13.4139 82.3637 13.0945 82.581 12.8262 82.8536C12.5579 83.1262 12.346 83.4488 12.2027 83.8029C12.0593 84.157 11.9873 84.5357 11.9907 84.9174L12.0159 87.7573L6.75604 87.8096C6.47887 87.8123 6.2049 87.8695 5.94977 87.9778C5.69463 88.0861 5.46333 88.2434 5.26907 88.4408C5.07481 88.6382 4.9214 88.8718 4.81759 89.1282C4.71379 89.3846 4.66162 89.6588 4.66407 89.9352L4.73326 97.753C4.7357 98.0294 4.79271 98.3025 4.90103 98.5569C5.00936 98.8112 5.16688 99.0417 5.3646 99.2352C5.56232 99.4287 5.79636 99.5814 6.05338 99.6846C6.31039 99.7879 6.58533 99.8396 6.86251 99.8369L12.1223 99.7845L12.1475 102.624C12.1509 103.006 12.2296 103.383 12.3792 103.734C12.5288 104.086 12.7463 104.404 13.0193 104.671C13.2924 104.938 13.6156 105.149 13.9705 105.292C14.3255 105.434 14.7051 105.506 15.0879 105.502L17.1315 105.482L17.186 111.629C17.1934 112.471 17.3672 113.304 17.6973 114.079C18.0275 114.854 18.5075 115.556 19.1101 116.146C19.7126 116.736 20.4259 117.201 21.2092 117.516C21.9924 117.83 22.8303 117.988 23.675 117.979L53.8938 117.679L53.9234 121.02L53.3204 121.026C52.898 121.03 52.4805 121.117 52.0917 121.282C51.703 121.447 51.3505 121.687 51.0545 121.988C50.7585 122.289 50.5248 122.645 50.3666 123.035C50.2084 123.426 50.1289 123.844 50.1327 124.265L50.1375 124.801L29.9033 129.828L29.799 129.409C29.7584 129.246 29.6858 129.092 29.5856 128.956C29.4854 128.821 29.3593 128.707 29.2147 128.62C29.0701 128.533 28.9098 128.476 28.7429 128.451C28.5759 128.426 28.4057 128.434 28.2418 128.475L16.1694 131.475C16.0055 131.515 15.8512 131.588 15.7154 131.688C15.5795 131.788 15.4648 131.914 15.3776 132.058C15.2905 132.202 15.2327 132.362 15.2076 132.529C15.1824 132.695 15.1904 132.865 15.231 133.029L16.3347 137.466C16.4168 137.796 16.6271 138.08 16.9191 138.255C17.2111 138.43 17.5611 138.482 17.8921 138.4L29.9646 135.4C30.1284 135.36 30.2827 135.287 30.4185 135.187C30.5544 135.087 30.6691 134.961 30.7563 134.817C30.8434 134.672 30.9012 134.512 30.9263 134.346C30.9515 134.179 30.9435 134.01 30.9028 133.846L30.7743 133.329L50.1703 128.51L50.1989 131.749C50.2026 132.17 50.2895 132.586 50.4545 132.974C50.6196 133.361 50.8596 133.713 51.1609 134.007C51.4622 134.302 51.8188 134.535 52.2105 134.692C52.6021 134.85 53.021 134.928 53.4434 134.924L73.5445 134.724C73.9669 134.72 74.3844 134.633 74.7732 134.468C75.162 134.303 75.5144 134.063 75.8105 133.762C76.1065 133.461 76.3403 133.106 76.4985 132.715C76.6566 132.324 76.7361 131.906 76.7324 131.485L76.6662 124.001C76.6586 123.151 76.3125 122.338 75.704 121.743C75.0955 121.147 74.2745 120.818 73.4215 120.826L72.8185 120.832L72.789 117.491L103.008 117.191C104.714 117.174 106.344 116.482 107.539 115.267C108.735 114.052 109.398 112.413 109.383 110.712L109.231 93.473L116.568 93.4001L142.003 111.68ZM86.3341 52.7044C86.5151 52.3412 86.7888 52.0317 87.1276 51.8072C87.4665 51.5827 87.8585 51.451 88.2643 51.4254C88.6701 51.3998 89.0754 51.4811 89.4394 51.6613C89.8034 51.8414 90.1134 52.114 90.3382 52.4517L94.345 58.4715L83.4051 58.5802L86.3341 52.7044ZM83.503 41.2386C83.9218 40.3984 84.581 39.7006 85.3971 39.2335C86.2132 38.7664 87.1496 38.5509 88.0879 38.6144C89.0261 38.6779 89.9241 39.0174 90.6683 39.59C91.4125 40.1627 91.9695 40.9427 92.2688 41.8315C92.5681 42.7203 92.5962 43.678 92.3497 44.5834C92.1032 45.4888 91.5931 46.3013 90.8839 46.9181C90.1747 47.5349 89.2982 47.9284 88.3654 48.0487C87.4325 48.169 86.4851 48.0108 85.643 47.5941C84.5138 47.0353 83.654 46.0517 83.2526 44.8599C82.8513 43.668 82.9413 42.3654 83.503 41.2386ZM111.89 47.6057C111.109 52.0173 109.117 56.1279 106.134 59.4805C105.058 58.7563 103.786 58.3762 102.487 58.3905L101.267 58.4027L95.1734 49.248C94.9487 48.9104 94.8171 48.5196 94.7919 48.115C94.7666 47.7103 94.8487 47.3061 95.0297 46.9428C95.2108 46.5796 95.4845 46.2702 95.8233 46.0457C96.1621 45.8212 96.5541 45.6895 96.9599 45.6639L109.469 44.8746C109.821 44.8535 110.173 44.9126 110.498 45.0472C110.824 45.1818 111.114 45.3885 111.347 45.6516C111.581 45.9148 111.751 46.2274 111.845 46.566C111.939 46.9045 111.954 47.26 111.89 47.6057ZM103.551 24.641C107.126 27.6556 109.765 31.6234 111.16 36.0809C111.268 36.4159 111.297 36.7711 111.246 37.1194C111.196 37.4677 111.066 37.8 110.867 38.0911C110.669 38.3822 110.406 38.6243 110.1 38.7993C109.794 38.9742 109.451 39.0773 109.099 39.1007L96.6002 39.8893C96.1944 39.9149 95.7891 39.8335 95.4251 39.6534C95.061 39.4732 94.7511 39.2006 94.5263 38.863C94.3016 38.5254 94.17 38.1346 94.1448 37.7299C94.1195 37.3253 94.2016 36.921 94.3826 36.5578L99.9621 25.3647C100.12 25.05 100.348 24.7752 100.629 24.5613C100.909 24.3474 101.235 24.1999 101.581 24.1302C101.927 24.0604 102.284 24.0702 102.625 24.1587C102.967 24.2472 103.284 24.4121 103.551 24.641ZM79.4309 20.379C83.8385 18.7931 88.6063 18.4906 93.1769 19.5069C93.5217 19.5812 93.845 19.7329 94.1221 19.9505C94.3992 20.1681 94.6229 20.4459 94.7761 20.7627C94.9294 21.0795 95.0082 21.4271 95.0067 21.779C95.0051 22.1309 94.9231 22.478 94.767 22.7937L89.1877 33.9869C89.0066 34.3501 88.7329 34.6595 88.3941 34.884C88.0552 35.1085 87.6632 35.2402 87.2574 35.2658C86.8516 35.2914 86.4463 35.21 86.0823 35.0298C85.7182 34.8497 85.4083 34.5771 85.1836 34.2394L78.2615 23.8399C78.0674 23.5462 77.9431 23.2122 77.8978 22.8633C77.8526 22.5143 77.8877 22.1596 78.0004 21.826C78.1131 21.4925 78.3005 21.1888 78.5484 20.9381C78.7962 20.6873 79.098 20.4961 79.4309 20.379ZM63.6311 39.0857C64.4527 34.4774 66.5849 30.2002 69.7737 26.7633C70.0113 26.5036 70.3051 26.3012 70.6326 26.1713C70.9602 26.0414 71.313 25.9875 71.6644 26.0137C72.0158 26.0399 72.3565 26.1454 72.6607 26.3224C72.965 26.4993 73.2248 26.743 73.4205 27.035L80.3482 37.4433C80.573 37.7809 80.7045 38.1717 80.7298 38.5763C80.755 38.981 80.6729 39.3852 80.4919 39.7485C80.3108 40.1117 80.0371 40.4211 79.6983 40.6456C79.3595 40.8701 78.9675 41.0018 78.5618 41.0274L66.0522 41.8168C65.7004 41.8379 65.3485 41.7789 65.0232 41.6443C64.6978 41.5096 64.4075 41.3029 64.1743 41.0398C63.941 40.7767 63.7709 40.464 63.6768 40.1254C63.5827 39.7869 63.5671 39.4313 63.6311 39.0857ZM64.3615 50.6104C64.254 50.2754 64.2245 49.9202 64.2752 49.5719C64.3259 49.2236 64.4555 48.8913 64.6542 48.6003C64.8528 48.3092 65.1153 48.067 65.4216 47.8921C65.728 47.7171 66.0702 47.6141 66.4224 47.5906L78.9215 46.8019C79.3273 46.7763 79.7326 46.8577 80.0967 47.0379C80.4607 47.218 80.7707 47.4907 80.9954 47.8283C81.2201 48.1659 81.3517 48.5567 81.3769 48.9614C81.4021 49.3661 81.32 49.7703 81.1389 50.1336L76.8963 58.645L68.7287 58.7262C66.7732 56.3199 65.2914 53.5664 64.3615 50.6104ZM34.6503 59.0651L34.5981 53.17C34.5949 52.8036 34.6884 52.4428 34.8693 52.1237C35.0502 51.8046 35.312 51.5385 35.6286 51.3522C35.9451 51.1658 36.3051 51.0658 36.6725 51.0621C37.0399 51.0585 37.4016 51.1513 37.7214 51.3313L47.5707 56.8758C47.9276 57.0768 48.2167 57.3788 48.4014 57.7438C48.5861 58.1087 48.6581 58.5202 48.6082 58.9262L34.6503 59.0651ZM53.1006 38.6286C54.3306 42.6737 54.3688 46.9873 53.2106 51.0562C53.1257 51.3623 52.9721 51.6452 52.7614 51.8836C52.5508 52.1219 52.2885 52.3094 51.9946 52.4318C51.7007 52.5542 51.3828 52.6084 51.0649 52.5902C50.747 52.572 50.4376 52.482 50.1599 52.3269L40.3025 46.7777C39.9828 46.5977 39.7163 46.3368 39.5298 46.0214C39.3433 45.706 39.2434 45.3471 39.2402 44.9807C39.2369 44.6144 39.3304 44.2535 39.5113 43.9345C39.6921 43.6154 39.954 43.3493 40.2705 43.1629L50.028 37.4189C50.3028 37.2583 50.6106 37.162 50.9281 37.1375C51.2456 37.113 51.5644 37.1609 51.8605 37.2774C52.1565 37.394 52.422 37.5762 52.6369 37.8103C52.8517 38.0444 53.0103 38.3242 53.1006 38.6286ZM34.354 25.5966C34.3522 25.2786 34.4232 24.9643 34.5614 24.6776C34.6996 24.3908 34.9015 24.1392 35.1516 23.9417C35.4018 23.7443 35.6938 23.6062 36.0053 23.538C36.3168 23.4698 36.6398 23.4733 36.9496 23.5481C41.0683 24.515 44.8246 26.6312 47.7795 29.6496C48.0037 29.8754 48.1733 30.1493 48.2754 30.4504C48.3776 30.7514 48.4096 31.0719 48.369 31.3873C48.3284 31.7027 48.2164 32.0049 48.0413 32.2708C47.8662 32.5368 47.6327 32.7595 47.3585 32.9222L37.6092 38.6615C37.2927 38.8478 36.9327 38.9478 36.5653 38.9515C36.1979 38.9551 35.8362 38.8623 35.5164 38.6823C35.1966 38.5022 34.9301 38.2414 34.7436 37.926C34.5571 37.6105 34.4572 37.2516 34.4539 36.8852L34.354 25.5966ZM36.2015 45.011C36.209 45.8584 35.9643 46.6893 35.4984 47.3986C35.0326 48.1079 34.3664 48.6638 33.5842 48.9959C32.8019 49.328 31.9388 49.4214 31.1038 49.2644C30.2689 49.1074 29.4997 48.7069 28.8935 48.1136C28.2873 47.5204 27.8714 46.761 27.6982 45.9315C27.5251 45.102 27.6025 44.2396 27.9208 43.4535C28.2391 42.6673 28.7839 41.9926 29.4863 41.5148C30.1887 41.037 31.0171 40.7774 31.8669 40.769C33.0065 40.7577 34.1033 41.1982 34.9162 41.9938C35.7291 42.7893 36.1914 43.8746 36.2015 45.011ZM15.7604 29.9679C18.6613 26.8913 22.3794 24.7007 26.4801 23.6521C26.7886 23.5711 27.1114 23.5613 27.4241 23.6233C27.7368 23.6853 28.0311 23.8175 28.2848 24.0099C28.5384 24.2024 28.7447 24.45 28.888 24.7339C29.0312 25.0178 29.1077 25.3307 29.1116 25.6487L29.2115 36.9374C29.2148 37.3038 29.1213 37.6646 28.9404 37.9837C28.7595 38.3028 28.4977 38.5688 28.1812 38.7552C27.8646 38.9415 27.5046 39.0415 27.1373 39.0452C26.7699 39.0488 26.4082 38.956 26.0884 38.7759L16.2391 33.2315C15.9621 33.0743 15.7247 32.8563 15.5449 32.5939C15.3652 32.3315 15.2477 32.0316 15.2016 31.717C15.1555 31.4024 15.1818 31.0814 15.2786 30.7783C15.3755 30.4753 15.5402 30.1981 15.7604 29.9679ZM10.7091 51.4789C9.47887 47.4338 9.44067 43.12 10.599 39.0511C10.6839 38.745 10.8375 38.4621 11.0482 38.2237C11.2589 37.9854 11.5211 37.798 11.815 37.6755C12.109 37.5531 12.4269 37.499 12.7448 37.5172C13.0626 37.5353 13.3721 37.6254 13.6497 37.7806L23.5072 43.3296C23.8269 43.5096 24.0935 43.7704 24.28 44.0859C24.4665 44.4013 24.5664 44.7602 24.5696 45.1266C24.5729 45.4929 24.4793 45.8538 24.2984 46.1729C24.1175 46.492 23.8557 46.7581 23.5391 46.9444L13.7818 52.6886C13.5069 52.8493 13.1991 52.9455 12.8816 52.97C12.5641 52.9945 12.2453 52.9467 11.9492 52.8301C11.6532 52.7136 11.3877 52.5314 11.1728 52.2973C10.958 52.0632 10.7994 51.7833 10.7091 51.4789ZM16.4512 57.1852L26.2006 51.4459C26.5171 51.2595 26.8771 51.1595 27.2445 51.1559C27.6119 51.1522 27.9736 51.2451 28.2934 51.4251C28.6131 51.6051 28.8796 51.8659 29.0661 52.1814C29.2526 52.4968 29.3525 52.8557 29.3557 53.2221L29.4079 59.1172L23.1544 59.1794C22.0959 59.1894 21.056 59.4601 20.1271 59.9673C19.1981 60.4746 18.409 61.2027 17.8299 62.087C17.2006 61.5771 16.5999 61.0333 16.0303 60.4579C15.8061 60.2321 15.6365 59.9582 15.5344 59.6571C15.4322 59.356 15.4002 59.0356 15.4408 58.7202C15.4813 58.4047 15.5934 58.1026 15.7685 57.8366C15.9435 57.5707 16.177 57.3479 16.4512 57.1852Z" fill="#E6D6B5"/>
<path d="M709.498 0L141 58.7715L141.498 112H711.498L709.498 0Z" fill="url(#paint0_linear_504_1262)"/>
</g>
<defs>
<linearGradient id="paint0_linear_504_1262" x1="140.5" y1="81.7715" x2="709.5" y2="56.2716" gradientUnits="userSpaceOnUse">
<stop stop-color="white" stop-opacity="0.4"/>
<stop offset="1" stop-color="white" stop-opacity="0.2"/>
</linearGradient>
<clipPath id="clip0_504_1262">
<rect width="712" height="143" fill="white"/>
</clipPath>
</defs>
</svg>
