<svg width="1512" height="14" viewBox="0 0 1512 14" fill="none" xmlns="http://www.w3.org/2000/svg">
<rect width="1528" height="14" transform="translate(-8)" fill="#B2805C"/>
<rect width="8" height="6" transform="matrix(1 0 0 -1 -4 10)" fill="#E6D6B5"/>
<rect width="8" height="6" transform="matrix(1 0 0 -1 10 10)" fill="#E6D6B5"/>
<rect width="8" height="6" transform="matrix(1 0 0 -1 24 10)" fill="#E6D6B5"/>
<rect width="8" height="6" transform="matrix(1 0 0 -1 38 10)" fill="#E6D6B5"/>
<rect width="8" height="6" transform="matrix(1 0 0 -1 52 10)" fill="#E6D6B5"/>
<rect width="8" height="6" transform="matrix(1 0 0 -1 66 10)" fill="#E6D6B5"/>
<rect width="8" height="6" transform="matrix(1 0 0 -1 80 10)" fill="#E6D6B5"/>
<rect width="8" height="6" transform="matrix(1 0 0 -1 94 10)" fill="#E6D6B5"/>
<rect width="8" height="6" transform="matrix(1 0 0 -1 108 10)" fill="#E6D6B5"/>
<rect width="8" height="6" transform="matrix(1 0 0 -1 122 10)" fill="#E6D6B5"/>
<rect width="8" height="6" transform="matrix(1 0 0 -1 136 10)" fill="#E6D6B5"/>
<rect width="8" height="6" transform="matrix(1 0 0 -1 150 10)" fill="#E6D6B5"/>
<rect width="8" height="6" transform="matrix(1 0 0 -1 164 10)" fill="#E6D6B5"/>
<rect width="8" height="6" transform="matrix(1 0 0 -1 178 10)" fill="#E6D6B5"/>
<rect width="8" height="6" transform="matrix(1 0 0 -1 192 10)" fill="#E6D6B5"/>
<rect width="8" height="6" transform="matrix(1 0 0 -1 206 10)" fill="#E6D6B5"/>
<rect width="8" height="6" transform="matrix(1 0 0 -1 220 10)" fill="#E6D6B5"/>
<rect width="8" height="6" transform="matrix(1 0 0 -1 234 10)" fill="#E6D6B5"/>
<rect width="8" height="6" transform="matrix(1 0 0 -1 248 10)" fill="#E6D6B5"/>
<rect width="8" height="6" transform="matrix(1 0 0 -1 262 10)" fill="#E6D6B5"/>
<rect width="8" height="6" transform="matrix(1 0 0 -1 276 10)" fill="#E6D6B5"/>
<rect width="8" height="6" transform="matrix(1 0 0 -1 290 10)" fill="#E6D6B5"/>
<rect width="8" height="6" transform="matrix(1 0 0 -1 304 10)" fill="#E6D6B5"/>
<rect width="8" height="6" transform="matrix(1 0 0 -1 318 10)" fill="#E6D6B5"/>
<rect width="8" height="6" transform="matrix(1 0 0 -1 332 10)" fill="#E6D6B5"/>
<rect width="8" height="6" transform="matrix(1 0 0 -1 346 10)" fill="#E6D6B5"/>
<rect width="8" height="6" transform="matrix(1 0 0 -1 360 10)" fill="#E6D6B5"/>
<rect width="8" height="6" transform="matrix(1 0 0 -1 374 10)" fill="#E6D6B5"/>
<rect width="8" height="6" transform="matrix(1 0 0 -1 388 10)" fill="#E6D6B5"/>
<rect width="8" height="6" transform="matrix(1 0 0 -1 402 10)" fill="#E6D6B5"/>
<rect width="8" height="6" transform="matrix(1 0 0 -1 416 10)" fill="#E6D6B5"/>
<rect width="8" height="6" transform="matrix(1 0 0 -1 430 10)" fill="#E6D6B5"/>
<rect width="8" height="6" transform="matrix(1 0 0 -1 444 10)" fill="#E6D6B5"/>
<rect width="8" height="6" transform="matrix(1 0 0 -1 458 10)" fill="#E6D6B5"/>
<rect width="8" height="6" transform="matrix(1 0 0 -1 472 10)" fill="#E6D6B5"/>
<rect width="8" height="6" transform="matrix(1 0 0 -1 486 10)" fill="#E6D6B5"/>
<rect width="8" height="6" transform="matrix(1 0 0 -1 500 10)" fill="#E6D6B5"/>
<rect width="8" height="6" transform="matrix(1 0 0 -1 514 10)" fill="#E6D6B5"/>
<rect width="8" height="6" transform="matrix(1 0 0 -1 528 10)" fill="#E6D6B5"/>
<rect width="8" height="6" transform="matrix(1 0 0 -1 542 10)" fill="#E6D6B5"/>
<rect width="8" height="6" transform="matrix(1 0 0 -1 556 10)" fill="#E6D6B5"/>
<rect width="8" height="6" transform="matrix(1 0 0 -1 570 10)" fill="#E6D6B5"/>
<rect width="8" height="6" transform="matrix(1 0 0 -1 584 10)" fill="#E6D6B5"/>
<rect width="8" height="6" transform="matrix(1 0 0 -1 598 10)" fill="#E6D6B5"/>
<rect width="8" height="6" transform="matrix(1 0 0 -1 612 10)" fill="#E6D6B5"/>
<rect width="8" height="6" transform="matrix(1 0 0 -1 626 10)" fill="#E6D6B5"/>
<rect width="8" height="6" transform="matrix(1 0 0 -1 640 10)" fill="#E6D6B5"/>
<rect width="8" height="6" transform="matrix(1 0 0 -1 654 10)" fill="#E6D6B5"/>
<rect width="8" height="6" transform="matrix(1 0 0 -1 668 10)" fill="#E6D6B5"/>
<rect width="8" height="6" transform="matrix(1 0 0 -1 682 10)" fill="#E6D6B5"/>
<rect width="8" height="6" transform="matrix(1 0 0 -1 696 10)" fill="#E6D6B5"/>
<rect width="8" height="6" transform="matrix(1 0 0 -1 710 10)" fill="#E6D6B5"/>
<rect width="8" height="6" transform="matrix(1 0 0 -1 724 10)" fill="#E6D6B5"/>
<rect width="8" height="6" transform="matrix(1 0 0 -1 738 10)" fill="#E6D6B5"/>
<rect width="8" height="6" transform="matrix(1 0 0 -1 752 10)" fill="#E6D6B5"/>
<rect width="8" height="6" transform="matrix(1 0 0 -1 766 10)" fill="#E6D6B5"/>
<rect width="8" height="6" transform="matrix(1 0 0 -1 780 10)" fill="#E6D6B5"/>
<rect width="8" height="6" transform="matrix(1 0 0 -1 794 10)" fill="#E6D6B5"/>
<rect width="8" height="6" transform="matrix(1 0 0 -1 808 10)" fill="#E6D6B5"/>
<rect width="8" height="6" transform="matrix(1 0 0 -1 822 10)" fill="#E6D6B5"/>
<rect width="8" height="6" transform="matrix(1 0 0 -1 836 10)" fill="#E6D6B5"/>
<rect width="8" height="6" transform="matrix(1 0 0 -1 850 10)" fill="#E6D6B5"/>
<rect width="8" height="6" transform="matrix(1 0 0 -1 864 10)" fill="#E6D6B5"/>
<rect width="8" height="6" transform="matrix(1 0 0 -1 878 10)" fill="#E6D6B5"/>
<rect width="8" height="6" transform="matrix(1 0 0 -1 892 10)" fill="#E6D6B5"/>
<rect width="8" height="6" transform="matrix(1 0 0 -1 906 10)" fill="#E6D6B5"/>
<rect width="8" height="6" transform="matrix(1 0 0 -1 920 10)" fill="#E6D6B5"/>
<rect width="8" height="6" transform="matrix(1 0 0 -1 934 10)" fill="#E6D6B5"/>
<rect width="8" height="6" transform="matrix(1 0 0 -1 948 10)" fill="#E6D6B5"/>
<rect width="8" height="6" transform="matrix(1 0 0 -1 962 10)" fill="#E6D6B5"/>
<rect width="8" height="6" transform="matrix(1 0 0 -1 976 10)" fill="#E6D6B5"/>
<rect width="8" height="6" transform="matrix(1 0 0 -1 990 10)" fill="#E6D6B5"/>
<rect width="8" height="6" transform="matrix(1 0 0 -1 1004 10)" fill="#E6D6B5"/>
<rect width="8" height="6" transform="matrix(1 0 0 -1 1018 10)" fill="#E6D6B5"/>
<rect width="8" height="6" transform="matrix(1 0 0 -1 1032 10)" fill="#E6D6B5"/>
<rect width="8" height="6" transform="matrix(1 0 0 -1 1046 10)" fill="#E6D6B5"/>
<rect width="8" height="6" transform="matrix(1 0 0 -1 1060 10)" fill="#E6D6B5"/>
<rect width="8" height="6" transform="matrix(1 0 0 -1 1074 10)" fill="#E6D6B5"/>
<rect width="8" height="6" transform="matrix(1 0 0 -1 1088 10)" fill="#E6D6B5"/>
<rect width="8" height="6" transform="matrix(1 0 0 -1 1102 10)" fill="#E6D6B5"/>
<rect width="8" height="6" transform="matrix(1 0 0 -1 1116 10)" fill="#E6D6B5"/>
<rect width="8" height="6" transform="matrix(1 0 0 -1 1130 10)" fill="#E6D6B5"/>
<rect width="8" height="6" transform="matrix(1 0 0 -1 1144 10)" fill="#E6D6B5"/>
<rect width="8" height="6" transform="matrix(1 0 0 -1 1158 10)" fill="#E6D6B5"/>
<rect width="8" height="6" transform="matrix(1 0 0 -1 1172 10)" fill="#E6D6B5"/>
<rect width="8" height="6" transform="matrix(1 0 0 -1 1186 10)" fill="#E6D6B5"/>
<rect width="8" height="6" transform="matrix(1 0 0 -1 1200 10)" fill="#E6D6B5"/>
<rect width="8" height="6" transform="matrix(1 0 0 -1 1214 10)" fill="#E6D6B5"/>
<rect width="8" height="6" transform="matrix(1 0 0 -1 1228 10)" fill="#E6D6B5"/>
<rect width="8" height="6" transform="matrix(1 0 0 -1 1242 10)" fill="#E6D6B5"/>
<rect width="8" height="6" transform="matrix(1 0 0 -1 1256 10)" fill="#E6D6B5"/>
<rect width="8" height="6" transform="matrix(1 0 0 -1 1270 10)" fill="#E6D6B5"/>
<rect width="8" height="6" transform="matrix(1 0 0 -1 1284 10)" fill="#E6D6B5"/>
<rect width="8" height="6" transform="matrix(1 0 0 -1 1298 10)" fill="#E6D6B5"/>
<rect width="8" height="6" transform="matrix(1 0 0 -1 1312 10)" fill="#E6D6B5"/>
<rect width="8" height="6" transform="matrix(1 0 0 -1 1326 10)" fill="#E6D6B5"/>
<rect width="8" height="6" transform="matrix(1 0 0 -1 1340 10)" fill="#E6D6B5"/>
<rect width="8" height="6" transform="matrix(1 0 0 -1 1354 10)" fill="#E6D6B5"/>
<rect width="8" height="6" transform="matrix(1 0 0 -1 1368 10)" fill="#E6D6B5"/>
<rect width="8" height="6" transform="matrix(1 0 0 -1 1382 10)" fill="#E6D6B5"/>
<rect width="8" height="6" transform="matrix(1 0 0 -1 1396 10)" fill="#E6D6B5"/>
<rect width="8" height="6" transform="matrix(1 0 0 -1 1410 10)" fill="#E6D6B5"/>
<rect width="8" height="6" transform="matrix(1 0 0 -1 1424 10)" fill="#E6D6B5"/>
<rect width="8" height="6" transform="matrix(1 0 0 -1 1438 10)" fill="#E6D6B5"/>
<rect width="8" height="6" transform="matrix(1 0 0 -1 1452 10)" fill="#E6D6B5"/>
<rect width="8" height="6" transform="matrix(1 0 0 -1 1466 10)" fill="#E6D6B5"/>
<rect width="8" height="6" transform="matrix(1 0 0 -1 1480 10)" fill="#E6D6B5"/>
<rect width="8" height="6" transform="matrix(1 0 0 -1 1494 10)" fill="#E6D6B5"/>
<rect width="8" height="6" transform="matrix(1 0 0 -1 1508 10)" fill="#E6D6B5"/>
</svg>
